<svg id="Layer_1" data-name="Layer 1" xmlns="http://www.w3.org/2000/svg" viewBox="0 0 404 362"><defs><style>.cls-1{fill:#fff;}</style></defs><path class="cls-1" d="M100,332.75a1.44,1.44,0,0,1-1.23-2.27,24.1,24.1,0,0,1,2.3-2.08q72.06-72.13,144.25-144.16c2.65-2.64,2.67-3.82,0-6.48Q173,105.81,101,33.62c-.71-.71-1.57-1.33-2.22-2.12a1.45,1.45,0,0,1,1-2.35c.73,0,1.44.11,2.11.11,30.66,0,61.32,0,92-.08A7.68,7.68,0,0,1,200,31.69q72.9,73.08,146,146c2.72,2.71,2.75,4,0,6.7q-73.14,72.84-146,145.92c-1.44,1.44-2.68,2.57-5,2.57-31.65-.1-63.31-.07-95-.09Z"/><path class="cls-1" d="M48.1,281.18c.41-1.91,2.15-2.79,3.37-4q46.23-46.32,92.6-92.5c2.89-2.86,3.13-4.25.1-7.25Q97.7,131.34,51.56,84.93c-1.25-1.25-2.89-2.21-3.75-4.77H59.76c11.16,0,22.32.07,33.47,0a8.33,8.33,0,0,1,6.6,2.61q47.78,48,95.73,95.72c1.95,1.94,2.19,2.95.1,5q-48.15,47.94-96.12,96c-1.32,1.31-2.56,2.39-4.68,2.38-15.32-.1-30.64-.08-45.95-.12C48.67,281.77,48.43,281.43,48.1,281.18Z"/></svg>