<svg id="Layer_1" data-name="Layer 1" xmlns="http://www.w3.org/2000/svg" viewBox="0 0 1138 188.92"><defs><style>.cls-1,.cls-2{fill:#ba0001;}.cls-1{fill-rule:evenodd;}</style></defs><title>footer-bg-building</title><g id="Group_518" data-name="Group 518"><path id="Path_327" data-name="Path 327" class="cls-1" d="M635.06,78.05c-.55-.65.78-1.45.54-2.5-1.15-.86-2.24-.2-2.91.86-.06.13-.06.46-.18.52-.79.86-1.94.07-2.42,1.26.3.39.78.19.91.59-.91.66-2.85,1.12-2.55,3.16,1.21.13,1.94-1,3.09-1.19.61-.92,1.58-1,2.24-1.84,1.22.53,2.31.92,2.79-.53-.36-.52-1-.19-1.51-.33" transform="translate(0 -10)"/><path id="Path_328" data-name="Path 328" class="cls-1" d="M642.88,68.7c-.91,0-1.94-.26-2.43.72,1.64.27.55,2.11.61,3.43a9.69,9.69,0,0,0,.54,2.63,2,2,0,0,0,.79,1.12,7.54,7.54,0,0,0,.43-3.49,4.17,4.17,0,0,0,.6-2.7c.43,0,.31.53.73.66,1,.33,1.27-1.84,1.88-2.44a3,3,0,0,0-3.15.07" transform="translate(0 -10)"/><path id="Path_329" data-name="Path 329" class="cls-1" d="M619.3,68.17a54.22,54.22,0,0,0-1.16-9c-1.93,1-3,6-2.48,8.1-1,.46-2,.86-3,1.38,1.21,3.23,4.91,1.32,6.85,1a1.86,1.86,0,0,0,2.73-1.18c-1-.8-2.06-.2-3-.27" transform="translate(0 -10)"/><path id="Path_330" data-name="Path 330" class="cls-1" d="M630.09,68.83c.54.26.72.73,1.15,1,.79.14,1.82-1.58,1.27-2.43-.61-.2-.85.33-1.51-.07.18-1,2.18-4.35.9-4.74s-2.48,1.91-2.9,3.69c-.55.66-1.7-.07-2.13.72.19.46.91.66.91,1.19-.3.72-1.15,1.05-1.69,1.84s-1.58,2.64-.73,3.49a3.43,3.43,0,0,0,1.94-1.71c1-.92,2.12-1.45,2.79-3" transform="translate(0 -10)"/><path id="Path_331" data-name="Path 331" class="cls-1" d="M652.33,74.56c.18-1,1-1.78,1.52-2.9-1.76-1-3.09.4-3.94,2.18-.61.13-1.34-.07-1.88.2-.12.65.73.85.85,1.38-1,1.38-2.61,4.48-1.7,6.13.49.06.49-.47.91-.2.85-2.18,2.36-3.23,3.15-5.34.55.27.55.92,1.34,1.12.6-.26,1.63-1.51,1.21-2.44-.73-.52-.91.14-1.46-.13" transform="translate(0 -10)"/><path id="Path_332" data-name="Path 332" class="cls-2" d="M751,171.87h2.91V133.72l-1.7-1.38L751,137Z" transform="translate(0 -10)"/><path id="Path_333" data-name="Path 333" class="cls-2" d="M747.08,171.87H750V137.15l-1.7-1.39-1.21,4.62Z" transform="translate(0 -10)"/><path id="Path_334" data-name="Path 334" class="cls-2" d="M743.14,171.87h2.91V140.51l-1.7-1.39-1.21,4.62Z" transform="translate(0 -10)"/><path id="Path_335" data-name="Path 335" class="cls-2" d="M739.2,171.87h2.91V143.93l-1.7-1.38-1.21,4.61Z" transform="translate(0 -10)"/><path id="Path_336" data-name="Path 336" class="cls-2" d="M735.26,171.87h2.91V147.29l-1.7-1.38-1.21,4.61Z" transform="translate(0 -10)"/><path id="Path_337" data-name="Path 337" class="cls-2" d="M731.32,171.87h2.91V150.65l-1.7-1.38-1.21,4.61Z" transform="translate(0 -10)"/><path id="Path_338" data-name="Path 338" class="cls-2" d="M727.38,171.87h2.91V154.08l-1.7-1.38-1.21,4.61Z" transform="translate(0 -10)"/><path id="Path_339" data-name="Path 339" class="cls-2" d="M723.44,171.87h2.91V157.44l-1.7-1.38-1.21,4.61Z" transform="translate(0 -10)"/><path id="Path_340" data-name="Path 340" class="cls-2" d="M719.5,171.87h2.91V160.8l-1.7-1.38L719.5,164Z" transform="translate(0 -10)"/><path id="Path_341" data-name="Path 341" class="cls-2" d="M715.62,171.87h2.91v-7.65l-1.7-1.38-1.21,4.61Z" transform="translate(0 -10)"/><path id="Path_342" data-name="Path 342" class="cls-2" d="M711.68,171.87h2.91v-4.29l-1.7-1.38-1.21,4.61Z" transform="translate(0 -10)"/><path id="Path_343" data-name="Path 343" class="cls-2" d="M748.77,119.49l-3.94.66-53.16,51.72h3.15Z" transform="translate(0 -10)"/><path id="Path_344" data-name="Path 344" class="cls-2" d="M709.19,135l-9.27,27.87,42.49-41.9Z" transform="translate(0 -10)"/><path id="Path_345" data-name="Path 345" class="cls-2" d="M754.05,114.62,751.56,107H749.8l-1.33,11.52h1.33Z" transform="translate(0 -10)"/><path id="Path_346" data-name="Path 346" class="cls-2" d="M753.56,104.93l-.42,4,1.33,4.88v.39l.06-.2.06.2v-.39l1.34-4.88-.43-4a4.56,4.56,0,0,0,2.73-4.28,5.06,5.06,0,0,0-.18-1.38v.06a3.81,3.81,0,0,1-3.09,4.29,3.62,3.62,0,0,1-3.94-3.36,2.43,2.43,0,0,1,0-.93v-.06a5.46,5.46,0,0,0-.19,1.38,4.71,4.71,0,0,0,2.73,4.28" transform="translate(0 -10)"/><path id="Path_347" data-name="Path 347" class="cls-2" d="M686.7,72.26l-3.63-38.61-3.64,38.61c1-.2,7.27,0,7.27,0" transform="translate(0 -10)"/><path id="Path_348" data-name="Path 348" class="cls-2" d="M707.13,96.3,704.4,67.64,701.67,96.3c.85-.13,5.46,0,5.46,0" transform="translate(0 -10)"/><path id="Path_349" data-name="Path 349" class="cls-2" d="M703.37,147.29l2.18-6.52V97.22h-2.18Z" transform="translate(0 -10)"/><path id="Path_350" data-name="Path 350" class="cls-2" d="M702.89,148.68V97.22h-1.15v55Z" transform="translate(0 -10)"/><path id="Path_351" data-name="Path 351" class="cls-2" d="M707.13,135.9V97.22H706v42.1Z" transform="translate(0 -10)"/><path id="Path_352" data-name="Path 352" class="cls-2" d="M675.19,173.58v2.5h1.15v-2.5h2.79v2.5h1.15v-2.5h2.79v2.5h1.15v-2.5H687v2.5h1.15v-2.5H691v2.5h1.15v-2.5h2.79v2.5H696v-2.5h2.79v2.5H700v-2.5h2.79v2.5h1.15v-2.5h2.79v2.5h1.15v-2.5h2.79v2.5h1.15v-2.5h2.79v2.5h1.15v-2.5h2.79v2.5h1.15v-2.5h2.79v2.5h1.15v-2.5h2.79v2.5h1.15v-2.5h2.79v2.5h1.15v-2.5h2.79v2.5h1.15v-2.5h2.79v2.5h1.15v-2.5h2.79v2.5h1.15v-2.5h2.79v2.5h1.15v-2.5h2.79v2.5h1.15v-2.5H754v2.5h1.27v-2.5h2.79v2.5h1.15v-2.5H762v2.5h1.15v-2.5h2.79v2.5h1.15v-2.5h2.79v2.5H771v-2.5h2.79v2.5H775v-2.5h2.79v2.5h1.15v-2.5h2.79v2.5h1.15v-2.5h2.79v2.5h1.15v-2.5h2.79v2.5h1.15v-2.5h2.79v2.5h1.15v-2.5h2.79v2.5h1.15v-2.5h2.79v2.5h1.15v-2.5h2.79v2.5h1.15v-2.5h2.79v2.5h1.15v-2.5h2.79v2.5h1.15v-2.5h2.79v2.5h1.15v-2.5h2.79v2.5h1.15v-2.5H825v2.5h1.15v-2.5H829v2.5h1.15v-2.5h2.79v2.5h1.15v-2.5h2.79v2.5H838v-3.42h-4.54l-3.64-12.06V73.51h-1.58v87.16h-.6V73.51h-2.91V160.6h-.61V73.51h-1.51V160.6L819,172.66H690.4l-3.64-12.06V73.51h-1.51V160.6h-.61V73.51h-2.91v87.16h-.6V73.51h-1.58V160.6l-3.64,12.06h-4.54v3.42h1.15v-2.5Z" transform="translate(0 -10)"/><path id="Path_353" data-name="Path 353" class="cls-2" d="M755.2,171.87h2.91V137l-1.21-4.62-1.7,1.39Z" transform="translate(0 -10)"/><path id="Path_354" data-name="Path 354" class="cls-2" d="M759.14,171.87h2.91V140.38l-1.21-4.62-1.7,1.39Z" transform="translate(0 -10)"/><path id="Path_355" data-name="Path 355" class="cls-2" d="M763.08,171.87H766V143.8l-1.21-4.61-1.7,1.38Z" transform="translate(0 -10)"/><path id="Path_356" data-name="Path 356" class="cls-2" d="M767,171.87h2.91V147.16l-1.21-4.61-1.7,1.38Z" transform="translate(0 -10)"/><path id="Path_357" data-name="Path 357" class="cls-2" d="M771,171.87h2.91V150.52l-1.21-4.61-1.7,1.38Z" transform="translate(0 -10)"/><path id="Path_358" data-name="Path 358" class="cls-2" d="M774.84,171.87h2.91V154l-1.21-4.61-1.7,1.38Z" transform="translate(0 -10)"/><path id="Path_359" data-name="Path 359" class="cls-2" d="M778.78,171.87h2.91V157.31l-1.21-4.61-1.7,1.38Z" transform="translate(0 -10)"/><path id="Path_360" data-name="Path 360" class="cls-2" d="M782.72,171.87h2.91V160.73l-1.21-4.61-1.7,1.38Z" transform="translate(0 -10)"/><path id="Path_361" data-name="Path 361" class="cls-2" d="M786.66,171.87h2.91v-7.78l-1.21-4.61-1.7,1.38Z" transform="translate(0 -10)"/><path id="Path_362" data-name="Path 362" class="cls-2" d="M790.6,171.87h2.91v-4.42l-1.21-4.61-1.7,1.38Z" transform="translate(0 -10)"/><path id="Path_363" data-name="Path 363" class="cls-2" d="M794.54,171.87h2.91v-1l-1.21-4.61-1.7,1.38Z" transform="translate(0 -10)"/><path id="Path_364" data-name="Path 364" class="cls-2" d="M812.91,171.87,754.65,115.8v-.13l-.06.07-.06-.07v.13l-58.25,56.07h7.64l50.67-43.48,50.68,43.48Z" transform="translate(0 -10)"/><path id="Path_365" data-name="Path 365" class="cls-2" d="M814.3,171.87h3.15l-53.16-51.72-3.94-.66Z" transform="translate(0 -10)"/><path id="Path_366" data-name="Path 366" class="cls-2" d="M799.93,135l-33.21-14,42.49,41.9Z" transform="translate(0 -10)"/><path id="Path_367" data-name="Path 367" class="cls-2" d="M755.08,114.62l4.24,3.88h1.33L759.32,107h-1.76Z" transform="translate(0 -10)"/><path id="Path_368" data-name="Path 368" class="cls-2" d="M829.76,72.26l-3.64-38.61-3.64,38.61c-.06,0,6.19-.2,7.28,0" transform="translate(0 -10)"/><path id="Path_369" data-name="Path 369" class="cls-2" d="M807.45,96.3l-2.73-28.66L802,96.3s4.6-.13,5.45,0" transform="translate(0 -10)"/><path id="Path_370" data-name="Path 370" class="cls-2" d="M803.63,97.22v43.49l2.18,6.52V97.16h-2.18Z" transform="translate(0 -10)"/><path id="Path_371" data-name="Path 371" class="cls-2" d="M807.39,152.23v-55h-1.15v51.46Z" transform="translate(0 -10)"/><path id="Path_372" data-name="Path 372" class="cls-2" d="M803.15,139.32V97.22H802V135.9Z" transform="translate(0 -10)"/><path id="Path_373" data-name="Path 373" class="cls-2" d="M836.73,185v-9h-2.79v9h-1.15v-9H830v9h-1.15v-9h-2.79v9h-1.15v-9h-2.79v9H821v-9h-2.79v9H817v-9h-2.79v9h-1.15v-9H810.3v9h-1.15v-9h-2.79v9h-1.15v-9h-2.79v9h-1.15v-9h-2.79v9h-1.15v-9h-2.79v9h-1.15v-9H790.6v9h-1.15v-9h-2.79v9h-1.15v-9h-2.79v9h-1.15v-9h-2.79v9h-1.15v-9h-2.79v9h-1.15v-9H770.9v9h-1.15v-9H767v9h-1.15v-9H763v9h-1.15v-9h-2.79v9h-1.15v-9h-2.79v9h-1.27v-9h-2.79v9h-1.15v-9h-2.79v9H746v-9H743.2v9h-1.15v-9h-2.79v9h-1.15v-9h-2.79v9h-1.15v-9h-2.79v9h-1.15v-9h-2.79v9h-1.15v-9H723.5v9h-1.16v-9h-2.78v9H718.4v-9h-2.78v9h-1.16v-9h-2.78v9h-1.16v-9h-2.78v9h-1.16v-9H703.8v9h-1.16v-9h-2.78v9H698.7v-9h-2.78v9h-1.16v-9H692v9h-1.16v-9H688v9h-1.16v-9H684.1v9h-1.16v-9h-2.78v9H679v-9h-2.78v9h-1.16v-9h-2.78v9h-2.91v6.85H838.91V185Z" transform="translate(0 -10)"/><path id="Path_374" data-name="Path 374" class="cls-2" d="M549,135.7h-.73v-2.24H549v-.79h-.36v-1s-1.09-2.11-2.79-2c0,0,.06-2.3-.3-2.57-.37.27-.31,2.57-.31,2.57-1.69-.06-2.79,2-2.79,2v1h-.36v.79h.73v2.24h-.73l1.33,3.62h-.12V191.7h4.43V139.32h-.12Zm-4.06,0h-1.27v-2.24h1.27Zm2.49,0h-1.28v-2.24h1.28Z" transform="translate(0 -10)"/><path id="Path_375" data-name="Path 375" class="cls-2" d="M509,152.7v3a2.25,2.25,0,0,1,1,.53,4.24,4.24,0,0,1,.9,1.18,5,5,0,0,1,1-1.25,1.44,1.44,0,0,1,1-.46,1.39,1.39,0,0,1,1.1.53,4.48,4.48,0,0,1,.91,1.18,4.78,4.78,0,0,1,1-1.25,1.44,1.44,0,0,1,1-.46,1.39,1.39,0,0,1,1.09.53,4.48,4.48,0,0,1,.91,1.18,4.61,4.61,0,0,1,1-1.25,1.4,1.4,0,0,1,1-.46,1.39,1.39,0,0,1,1.09.53,4.48,4.48,0,0,1,.91,1.18,4.61,4.61,0,0,1,1-1.25,1.4,1.4,0,0,1,1-.46,1.37,1.37,0,0,1,1.09.53,4.48,4.48,0,0,1,.91,1.18,4.61,4.61,0,0,1,1-1.25,1.4,1.4,0,0,1,1-.46,1.59,1.59,0,0,1,1.15.53,4.28,4.28,0,0,1,.91,1.18,4.61,4.61,0,0,1,1-1.25,1.4,1.4,0,0,1,1-.46,1.59,1.59,0,0,1,1.15.53,4.28,4.28,0,0,1,.91,1.18,4.81,4.81,0,0,1,1-1.25,1.58,1.58,0,0,1,.55-.33v-3c0-1.38.84-3.09,1-4.54.36-3.89,0-7.45-2-10.74a15.18,15.18,0,0,0-3.51-4,22.11,22.11,0,0,0-2.18-1.44c-.49-.27-1.52-.47-1.88-.86l-.18-.92-4.31-3.1-.18-.72h.73v-.73h-.73V125a1.58,1.58,0,0,0,1.27-1.72,1.75,1.75,0,0,0-1.33-1.78v-1H524l-.19-.66H523v-1s.6.13.66-.92a.72.72,0,0,0-.66-.79H523v-1.06h.6l-.18-.39H523V115l.42-.33s.3-.13.18-.79c0-.14-.06-.2-.06-.27l-.72-3.36-.73,3.36c0,.07-.06.2-.06.27-.06.59.18.79.18.79l.42.33v.79h-.48l-.18.39h.6v1.06a.77.77,0,0,0-.72.79V118c.06,1.06.66.93.66.93v1H522l-.19.66h.67v1a1.68,1.68,0,0,0-1.33,1.78,1.56,1.56,0,0,0,1.27,1.71v.73h-.73v.72h.73l-.18.73-4.3,3.09-.19.92c-.36.4-1.39.6-1.88.86a13.54,13.54,0,0,0-2.18,1.45,15.18,15.18,0,0,0-3.51,3.95c-2,3.3-2.37,6.85-2,10.74.06,1.32.84,3.1.84,4.42m19.46-20.82a3.65,3.65,0,0,1,1.7.92h-1.7Zm-1.21-.13H528v1.12h-.73Zm-1,0H527v1.12h-.73Zm-1,0H526v1.12h-.73Zm-1,0H525v1.12h-.73Zm-1,0H524v1.12h-.73Zm-.61,0H523v1.12h-.31Zm-1,0h.73v1.12h-.73Zm-1,0h.73v1.12h-.73Zm-1,0h.73v1.12h-.73Zm-1,0h.73v1.12h-.73Zm-1,0h.73v1.12h-.73Zm-.48.13v.92h-1.7a3.6,3.6,0,0,1,1.7-.92" transform="translate(0 -10)"/><path id="Path_376" data-name="Path 376" class="cls-2" d="M549.34,131.22a1.14,1.14,0,0,1,.13.46v.2a1,1,0,0,1,.36.79v.79a.89.89,0,0,1-.73.92v.4a1,1,0,0,1,.61.39.88.88,0,0,1,.06.86l-1.21,3.23v.33l.06.46v3a1.54,1.54,0,0,1,.36-.33,1.38,1.38,0,0,1,1-.46,1.57,1.57,0,0,1,1.15.52,4.14,4.14,0,0,1,.91,1.19,4.81,4.81,0,0,1,1-1.25,1.38,1.38,0,0,1,1-.46,1.57,1.57,0,0,1,1.15.52,4.14,4.14,0,0,1,.91,1.19,5,5,0,0,1,1-1.25,1.4,1.4,0,0,1,1-.46,1.39,1.39,0,0,1,1.1.52,4.29,4.29,0,0,1,.9,1.19,5,5,0,0,1,1-1.25,1.4,1.4,0,0,1,1-.46,1.6,1.6,0,0,1,1.16.52,4.53,4.53,0,0,1,.91,1.19,4.61,4.61,0,0,1,1-1.25,1,1,0,0,1,1.45-.2l.18.2a4.61,4.61,0,0,1,1,1.25,4.32,4.32,0,0,1,.91-1.19,1.49,1.49,0,0,1,1.15-.52,1.59,1.59,0,0,1,1,.46,4.61,4.61,0,0,1,1,1.25,4.53,4.53,0,0,1,.91-1.19,1.47,1.47,0,0,1,1.09-.52,1.59,1.59,0,0,1,1,.46,4.61,4.61,0,0,1,1,1.25,4.53,4.53,0,0,1,.91-1.19,1.47,1.47,0,0,1,1.09-.52,1.64,1.64,0,0,1,1,.46,4.78,4.78,0,0,1,1,1.25,4.53,4.53,0,0,1,.91-1.19,1.51,1.51,0,0,1,1.16-.52,1.64,1.64,0,0,1,1,.46,1.8,1.8,0,0,0,.36.33v-3l.06-.46v-.33L582.14,136a1.08,1.08,0,0,1,.06-.86.78.78,0,0,1,.61-.39v-.4a.89.89,0,0,1-.73-.92v-.79a1,1,0,0,1,.36-.79v-.2a1,1,0,0,1,.12-.46,5.77,5.77,0,0,1,1.88-2c-.6-1.65-2-5.21-4.24-7.38a18.67,18.67,0,0,0-7.82-5.73l-.24-1.12-5.46-3.89-.18-.92h.91v-.92h-.91v-.86s1.51-.13,1.58-2.18a2.23,2.23,0,0,0-1.7-2.24v-1.25h.85l-.25-.85h-.66v-1.26s.79.2.85-1.12a1,1,0,0,0-.85-1h-.06V97.09H567l-.18-.52h-.54l-.06-1,.54-.4s.37-.19.24-1h0a2.67,2.67,0,0,0-.06-.32l-.91-4.22-.9,4.22a.75.75,0,0,0-.06.32h0c-.13.8.24,1,.24,1l.54.4-.06,1h-.54l-.18.52h.78v1.32a1,1,0,0,0-.91,1v.06c.06,1.32.85,1.12.85,1.12v1.26h-.66l-.25.85h.85v1.25a2.23,2.23,0,0,0-1.7,2.24c.07,2,1.58,2.18,1.58,2.18v.86h-.91v.92h.91l-.18.92L560,115l-.24,1.12A19.19,19.19,0,0,0,552,121.8a21.33,21.33,0,0,0-4.24,7.38,10.69,10.69,0,0,1,1.63,2M573,116.92a4.73,4.73,0,0,1,2.12,1.19H573Zm-1.58-.13h.91v1.38h-.91Zm-1.21,0h.91v1.38h-.91Zm-1.28,0h.91v1.38h-.91Zm-1.27,0h.91v1.38h-.91Zm-1.21,0h.91v1.38h-.91Zm-.73,0h.36v1.38h-.36Zm-1.27,0h.91v1.38h-.91Zm-1.27,0h.9v1.38h-.9Zm-1.22,0h.91v1.38H562Zm-1.27,0h.91v1.38h-.91Zm-1.27,0h.91v1.38h-.91Zm-.61.13v1.19h-2.12a4.68,4.68,0,0,1,2.12-1.19" transform="translate(0 -10)"/><path id="Path_377" data-name="Path 377" class="cls-2" d="M483.88,135.7l-.43-.59V134c0-.53.31-1.19.37-1.72a6.56,6.56,0,0,0-.73-4,6.15,6.15,0,0,0-1.33-1.51,3.91,3.91,0,0,0-.85-.53c-.06-.06-.12-.06-.24-.06a1.85,1.85,0,0,0-.49-.27c0-.06-.06-.33-.06-.33l-1.64-1.18-.06-.27h.25v-.26h-.25v-.26a.69.69,0,0,0,0-1.32v-.4h.25l-.06-.26h-.19v-.39s.25.06.25-.33c0-.14-.13-.33-.25-.33h0v-.4h.25l-.06-.13h-.19v-.33l.19-.13s.12-.07.06-.27v-.13l-.31-1.25-.3,1.25v.13c-.06.27.06.27.06.27l.18.13V120h-.18l-.06.13h.24v.4a.27.27,0,0,0-.24.26h0c0,.4.24.33.24.33v.39h-.18l-.06.27h.24v.39a.63.63,0,0,0-.48.66.63.63,0,0,0,.48.66v.26h-.24V124h.24l-.06.26-1.64,1.19-.06.33a3.84,3.84,0,0,1-.72.33,5.88,5.88,0,0,0-.85.52,5.3,5.3,0,0,0-1.34,1.52,6.13,6.13,0,0,0-.72,4,16.76,16.76,0,0,1,.36,1.71V135l-.67.66v.86H484Z" transform="translate(0 -10)"/><path id="Path_378" data-name="Path 378" class="cls-2" d="M482.36,142.09V137h-8.18v5.14h.61v-3c.06-1.65,1-1.32,1-1.32s.91-.33,1,1.32v3h.6v-3c.06-1.65,1-1.32,1-1.32s.91-.33,1,1.32v3h.61v-3c.06-1.65,1-1.32,1-1.32s.91-.33,1,1.32v3Z" transform="translate(0 -10)"/><path id="Path_379" data-name="Path 379" class="cls-2" d="M482.12,145.58h0l1.58-2.9H473.15l1.33,2.9v6.26h-.78v40.25h9.15V151.84h-.73Z" transform="translate(0 -10)"/><path id="Path_380" data-name="Path 380" class="cls-2" d="M505.88,146.7l-.42-.59V145a17.54,17.54,0,0,1,.36-1.72,6.51,6.51,0,0,0-.73-4,5.83,5.83,0,0,0-1.33-1.52,3.82,3.82,0,0,0-.85-.53c-.06-.06-.12-.06-.24-.06a1.83,1.83,0,0,0-.49-.27,3.14,3.14,0,0,0-.06-.32l-1.63-1.19-.06-.26h.24v-.33h-.24v-.27a.63.63,0,0,0,.48-.66.62.62,0,0,0-.48-.65v-.4h.24l-.06-.26h-.18v-.4s.24.07.24-.33c0-.13-.12-.33-.24-.33h0v-.39h.24l-.06-.13h-.18v-.33l.18-.14s.12-.06.06-.26v-.13l-.3-1.25-.37,1.31v.14c-.06.26.06.26.06.26l.19.13V131h-.19l-.06.13h.25v.4a.27.27,0,0,0-.25.26h0c0,.4.25.33.25.33v.4H500l-.06.26h.24v.4a.62.62,0,0,0-.48.65.63.63,0,0,0,.48.66v.27h-.24V135h.24l-.06.26-1.63,1.19-.06.33a4.24,4.24,0,0,1-.73.33,5.64,5.64,0,0,0-.85.53,5.1,5.1,0,0,0-1.33,1.51,6.16,6.16,0,0,0-.73,4,17.35,17.35,0,0,1,.36,1.71V146l-.66.66v.86h11.39Z" transform="translate(0 -10)"/><path id="Path_381" data-name="Path 381" class="cls-2" d="M504.37,153.09V148h-8.19v5.14h.61v-3c.06-1.65,1-1.32,1-1.32s.91-.33,1,1.32v3h.61v-3c.06-1.65,1-1.32,1-1.32s.91-.33,1,1.32v3h.6v-3c.06-1.65,1-1.32,1-1.32s.91-.33,1,1.32v3Z" transform="translate(0 -10)"/><path id="Path_382" data-name="Path 382" class="cls-2" d="M589.72,135.7H589v-2.24h.73v-.79h-.37v-1s-1.09-2.11-2.79-2c0,0,.06-2.3-.3-2.57-.36.27-.3,2.57-.3,2.57-1.7-.06-2.79,2-2.79,2v1h-.36v.79h.72v2.24h-.72l1.33,3.62H584V191.7h4.42V139.32h-.12Zm-4.07,0h-1.27v-2.24h1.27Zm2.49,0h-1.27v-2.24h1.27Z" transform="translate(0 -10)"/><path id="Path_383" data-name="Path 383" class="cls-2" d="M594.81,152.7v3a2,2,0,0,1,.54.33,4.61,4.61,0,0,1,1,1.25,4.53,4.53,0,0,1,.91-1.19,1.51,1.51,0,0,1,1.15-.53,1.61,1.61,0,0,1,1,.47,4.61,4.61,0,0,1,1,1.25,4.53,4.53,0,0,1,.91-1.19,1.52,1.52,0,0,1,1.16-.53,1.65,1.65,0,0,1,1,.47,5,5,0,0,1,1,1.25,4.29,4.29,0,0,1,.9-1.19,1.52,1.52,0,0,1,1.16-.53,1.65,1.65,0,0,1,1,.47,5,5,0,0,1,1,1.25,4.14,4.14,0,0,1,.91-1.19,1.48,1.48,0,0,1,1.15-.53,1.65,1.65,0,0,1,1,.47,4.65,4.65,0,0,1,1,1.25,4.14,4.14,0,0,1,.91-1.19,1.48,1.48,0,0,1,1.15-.53,1.63,1.63,0,0,1,1,.47,4.65,4.65,0,0,1,1,1.25,4.14,4.14,0,0,1,.91-1.19,1.5,1.5,0,0,1,1.15-.53,1.63,1.63,0,0,1,1,.47,4.65,4.65,0,0,1,1,1.25,4.32,4.32,0,0,1,.91-1.19,1.48,1.48,0,0,1,1-.53v-3c0-1.38.85-3.1,1-4.55.36-3.88,0-7.44-2-10.73a15,15,0,0,0-3.52-4,21.68,21.68,0,0,0-2.18-1.45c-.48-.26-1.51-.46-1.88-.85l-.18-.93-4.3-3.09-.18-.73h.72v-.72h-.72v-.73a1.57,1.57,0,0,0,1.27-1.71,1.75,1.75,0,0,0-1.34-1.78v-1H610l-.18-.65h-.55v-1s.61.13.67-.92a.73.73,0,0,0-.67-.8h-.06v-1h.61l-.18-.39h-.49v-.8l.43-.32s.3-.14.18-.8c0-.13-.06-.19-.06-.26l-.73-3.36-.73,3.36c0,.07-.06.2-.06.26-.06.6.18.8.18.8l.43.32v.8h-.49l-.18.39h.61v1a.77.77,0,0,0-.73.8v.06c.06,1.06.67.92.67.92v1h-.55l-.18.66h.67v1a1.69,1.69,0,0,0-1.34,1.78,1.58,1.58,0,0,0,1.28,1.71v.73h-.73v.72h.73l-.19.72-4.3,3.1-.18.92c-.36.4-1.4.6-1.88.86a12.15,12.15,0,0,0-2.18,1.45,15,15,0,0,0-3.52,3.95c-2,3.3-2.36,6.85-2,10.74-.3,1.45.55,3.16.55,4.55m19.39-20.89a3.6,3.6,0,0,1,1.7.92h-1.7Zm-1.21-.13h.73v1.12H613Zm-1,0h.73v1.12H612Zm-1,0h.73v1.12H611Zm-1,0h.73v1.12H610Zm-1,0h.73v1.12H609Zm-.6,0h.3v1.12h-.3Zm-1,0h.72v1.12h-.72Zm-1,0h.72v1.12h-.72Zm-1,0h.72v1.12h-.72Zm-1,0h.73v1.12h-.73Zm-1,0h.73v1.12h-.73Zm-.54.13v.92h-1.7a3.65,3.65,0,0,1,1.7-.92" transform="translate(0 -10)"/><path id="Path_384" data-name="Path 384" class="cls-2" d="M583.05,145.71a1.05,1.05,0,0,0,.06-1.18,4,4,0,0,0-.91-1.12c-.36-.33-.67-.27-1,.06a4.25,4.25,0,0,0-.79,1.06,1.05,1.05,0,0,0,.06,1.18,1.65,1.65,0,0,1,.24,1.19h-1.94a1.61,1.61,0,0,1,.25-1.19,1.05,1.05,0,0,0,.06-1.18,4.18,4.18,0,0,0-.91-1.12c-.37-.33-.67-.27-1,.06a4,4,0,0,0-.79,1.06,1.05,1.05,0,0,0,.06,1.18,1.65,1.65,0,0,1,.24,1.19h-1.94a1.61,1.61,0,0,1,.25-1.19,1.05,1.05,0,0,0,.06-1.18,4.18,4.18,0,0,0-.91-1.12c-.37-.33-.67-.27-1,.06a4,4,0,0,0-.79,1.06,1.05,1.05,0,0,0,.06,1.18,1.65,1.65,0,0,1,.24,1.19h-1.94a1.65,1.65,0,0,1,.24-1.19,1,1,0,0,0,.06-1.18,4,4,0,0,0-.9-1.12c-.37-.33-.67-.27-1,.06a4.2,4.2,0,0,0-.78,1.06,1,1,0,0,0,.06,1.18,1.65,1.65,0,0,1,.24,1.19h-1.94a1.65,1.65,0,0,1,.24-1.19,1,1,0,0,0,.06-1.18,3.83,3.83,0,0,0-.91-1.12.25.25,0,0,0-.42-.14.14.14,0,0,0-.12.14,4.81,4.81,0,0,0-.91,1.12,1.05,1.05,0,0,0,.06,1.18,1.65,1.65,0,0,1,.24,1.19h-1.94a1.65,1.65,0,0,1,.24-1.19,1,1,0,0,0,.07-1.18,3.54,3.54,0,0,0-.79-1.06c-.37-.33-.67-.46-1-.06a4.81,4.81,0,0,0-.91,1.12,1.05,1.05,0,0,0,.06,1.18,1.65,1.65,0,0,1,.24,1.19H558.8a1.65,1.65,0,0,1,.24-1.19,1,1,0,0,0,.06-1.18,3.36,3.36,0,0,0-.78-1.06c-.37-.33-.67-.46-1-.06a4.81,4.81,0,0,0-.91,1.12,1,1,0,0,0,.06,1.18,1.65,1.65,0,0,1,.24,1.19h-1.94a1.65,1.65,0,0,1,.24-1.19,1,1,0,0,0,.06-1.18,3.24,3.24,0,0,0-.79-1.06c-.36-.33-.66-.46-1-.06a5.38,5.38,0,0,0-.91,1.12,1,1,0,0,0,.07,1.18,1.65,1.65,0,0,1,.24,1.19h-1.94a1.65,1.65,0,0,1,.24-1.19,1.05,1.05,0,0,0,.06-1.18,3.24,3.24,0,0,0-.79-1.06c-.36-.33-.66-.46-1-.06a5.38,5.38,0,0,0-.91,1.12,1.05,1.05,0,0,0,.06,1.18,1.61,1.61,0,0,1,.25,1.19h-.49v36.69h.12v8.11h5.64V166.6s-1.09-8.83,11.58-12.92C578.08,157.77,577,166.6,577,166.6v25.1h5.63v-8.11h.12V146.9h-.42a3.2,3.2,0,0,0,.73-1.19" transform="translate(0 -10)"/><path id="Path_385" data-name="Path 385" class="cls-2" d="M658.64,135.11V134a17.54,17.54,0,0,1,.36-1.72,6.56,6.56,0,0,0-.73-4,6.15,6.15,0,0,0-1.33-1.51,3.69,3.69,0,0,0-.85-.53,3.59,3.59,0,0,1-.73-.33l-.06-.33-1.63-1.18-.06-.27h.24v-.26h-.24v-.26a.69.69,0,0,0,0-1.32v-.4h.24l-.06-.26h-.18v-.39s.24.06.24-.33c0-.14-.12-.33-.24-.33h0v-.4h.24l-.06-.13h-.18v-.33l.18-.13s.12-.07.06-.27v-.13l-.3-1.25-.31,1.25v.13c-.06.27.06.27.06.27l.18.13V120h-.18l-.06.13h.24v.4a.27.27,0,0,0-.24.26h0c0,.4.24.33.24.33v.39h-.18l-.06.27h.24v.39a.63.63,0,0,0-.48.66.63.63,0,0,0,.48.66v.26h-.24V124h.24l-.06.26-1.63,1.19-.06.33a1.1,1.1,0,0,0-.49.26c-.06,0-.12.07-.24.07a6.47,6.47,0,0,0-.85.52,5.12,5.12,0,0,0-1.33,1.52,6.14,6.14,0,0,0-.73,4,16.76,16.76,0,0,1,.36,1.71V135l-.42.59v.86h11.4v-.86Z" transform="translate(0 -10)"/><path id="Path_386" data-name="Path 386" class="cls-2" d="M657.61,142.09V137h-8.19v5.14H650v-3c.06-1.65,1-1.32,1-1.32s.91-.33,1,1.32v3h.61v-3c.06-1.65,1-1.32,1-1.32s.91-.33,1,1.32v3h.61v-3c.06-1.65,1-1.32,1-1.32s.91-.33,1,1.32v3Z" transform="translate(0 -10)"/><path id="Path_387" data-name="Path 387" class="cls-2" d="M658.64,142.68H648.09l1.51,2.9h.07v6.26h-.73v40.25h9.15V151.84h-.79v-6.26Z" transform="translate(0 -10)"/><path id="Path_388" data-name="Path 388" class="cls-2" d="M565.89,155.07c-10.3,3.75-10.12,10.41-10.12,10.41v26.15h6V167.39c.12-3.49,4.18-4.29,4.18-4.29s4,.8,4.19,4.29v24.24h6V165.48c-.12.06.06-6.59-10.25-10.41" transform="translate(0 -10)"/><path id="Path_389" data-name="Path 389" class="cls-2" d="M496.24,156.06a1.28,1.28,0,0,1,.91-.4,1.36,1.36,0,0,1,1.09.53,4.09,4.09,0,0,1,.91,1.18,5,5,0,0,1,1-1.25,1.44,1.44,0,0,1,1-.46,1.39,1.39,0,0,1,1.1.53,4.24,4.24,0,0,1,.9,1.18,5,5,0,0,1,1-1.25c.13-.06.19-.2.31-.26l1.15-2.18H495Z" transform="translate(0 -10)"/><path id="Path_390" data-name="Path 390" class="cls-2" d="M637.36,146.7l-.67-.66v-1.12a17.41,17.41,0,0,1,.37-1.71,5.9,5.9,0,0,0-2.06-5.53,3.91,3.91,0,0,0-.85-.53,3.92,3.92,0,0,1-.73-.33l-.06-.33-1.64-1.19-.06-.26h.24v-.26h-.24v-.27a.63.63,0,0,0,.49-.66.62.62,0,0,0-.49-.65v-.4h.24l-.06-.26h-.18v-.4s.24.07.24-.33c0-.13-.12-.33-.24-.33h0v-.39h.24l-.06-.13h-.18v-.33l.18-.14s.13-.06.06-.26v-.13l-.3-1.25-.3,1.25v.13c-.06.26.06.26.06.26l.18.14V131h-.18l-.06.13h.24v.39a.27.27,0,0,0-.24.27h0c0,.39.24.33.24.33v.39h-.18l-.06.26h.24v.4a.69.69,0,0,0,0,1.32v.26h-.24V135h.24l-.06.27-1.64,1.18-.06.33a1.13,1.13,0,0,0-.48.27c-.06,0-.12.06-.24.06a5.28,5.28,0,0,0-2.19,2,6.16,6.16,0,0,0-.72,4,17.54,17.54,0,0,1,.36,1.72V146l-.42.59v.86h11.39Z" transform="translate(0 -10)"/><path id="Path_391" data-name="Path 391" class="cls-2" d="M635.66,153.09V148h-8.18v5.14h.61v-3c.06-1.65,1-1.32,1-1.32s.91-.33,1,1.32v3h.6v-3c.06-1.65,1-1.32,1-1.32s.91-.33,1,1.32v3h.61v-3c.06-1.65,1-1.32,1-1.32s.91-.33,1,1.32v3Z" transform="translate(0 -10)"/><path id="Path_392" data-name="Path 392" class="cls-2" d="M627.36,155.86a.59.59,0,0,1,.3.26,4.61,4.61,0,0,1,1,1.25,4.28,4.28,0,0,1,.91-1.18,1.5,1.5,0,0,1,1.15-.53,1.64,1.64,0,0,1,1,.46,4.61,4.61,0,0,1,1,1.25,4.48,4.48,0,0,1,.91-1.18,1.51,1.51,0,0,1,1.15-.53,1.16,1.16,0,0,1,.91.4l1.09-2.38H626.21Z" transform="translate(0 -10)"/><path id="Path_393" data-name="Path 393" class="cls-2" d="M541.89,156.91c-.36-.33-.67-.46-1-.06A4.81,4.81,0,0,0,540,158a1.05,1.05,0,0,0,.06,1.18,1.65,1.65,0,0,1,.24,1.19h-1.94a1.65,1.65,0,0,1,.24-1.19,1,1,0,0,0,.07-1.18,3.54,3.54,0,0,0-.79-1.06c-.37-.33-.67-.46-1-.06a4.81,4.81,0,0,0-.91,1.12,1.05,1.05,0,0,0,.06,1.18,1.65,1.65,0,0,1,.24,1.19h-1.94a1.65,1.65,0,0,1,.24-1.19,1,1,0,0,0,.06-1.18,3.36,3.36,0,0,0-.78-1.06c-.37-.33-.67-.46-1-.06a4.81,4.81,0,0,0-.91,1.12,1,1,0,0,0,.06,1.18,1.65,1.65,0,0,1,.24,1.19h-1.94a1.65,1.65,0,0,1,.24-1.19,1,1,0,0,0,.06-1.18,3.24,3.24,0,0,0-.79-1.06c-.36-.33-.66-.46-1-.06a5,5,0,0,0-.9,1.12,1,1,0,0,0,.06,1.18,1.65,1.65,0,0,1,.24,1.19h-1.94a1.65,1.65,0,0,1,.24-1.19,1.05,1.05,0,0,0,.06-1.18,3.24,3.24,0,0,0-.79-1.06c-.36-.33-.66-.46-1-.06a5.38,5.38,0,0,0-.91,1.12,1.05,1.05,0,0,0,.06,1.18,1.61,1.61,0,0,1,.25,1.19h-1.94a1.65,1.65,0,0,1,.24-1.19,1.05,1.05,0,0,0,.06-1.18,3.24,3.24,0,0,0-.79-1.06c-.36-.33-.66-.46-1-.06a5.08,5.08,0,0,0-.91,1.12,1.05,1.05,0,0,0,.06,1.18,1.61,1.61,0,0,1,.25,1.19H518a1.65,1.65,0,0,1,.24-1.19,1.05,1.05,0,0,0,.06-1.18,3.38,3.38,0,0,0-.79-1.06c-.36-.33-.67-.46-1-.06a5.08,5.08,0,0,0-.91,1.12,1.05,1.05,0,0,0,.06,1.18,1.65,1.65,0,0,1,.24,1.19h-1.94a1.61,1.61,0,0,1,.25-1.19,1.05,1.05,0,0,0,.06-1.18,3.38,3.38,0,0,0-.79-1.06c-.36-.33-.67-.46-1-.06a5.08,5.08,0,0,0-.91,1.12,1.05,1.05,0,0,0,.06,1.18,1.65,1.65,0,0,1,.24,1.19h-1.94a1.61,1.61,0,0,1,.25-1.19,1.05,1.05,0,0,0,.06-1.18,3.54,3.54,0,0,0-.79-1.06c-.37-.33-.67-.46-1-.06a4.81,4.81,0,0,0-.91,1.12,1.05,1.05,0,0,0,.06,1.18,1.65,1.65,0,0,1,.24,1.19h-1.94a1.65,1.65,0,0,1,.24-1.19,1,1,0,0,0,.06-1.18,3.36,3.36,0,0,0-.78-1.06c-.37-.33-.67-.46-1-.06a4.81,4.81,0,0,0-.91,1.12,1,1,0,0,0,.06,1.18,1.65,1.65,0,0,1,.24,1.19h-1.94a1.65,1.65,0,0,1,.24-1.19,1,1,0,0,0,.06-1.18,3.36,3.36,0,0,0-.78-1.06c-.37-.33-.67-.46-1-.06a4.81,4.81,0,0,0-.91,1.12,1,1,0,0,0,.06,1.18,1.65,1.65,0,0,1,.24,1.19H497.7a1.65,1.65,0,0,1,.24-1.19A1.05,1.05,0,0,0,498,158a3.24,3.24,0,0,0-.79-1.06c-.36-.33-.66-.46-1-.06a5.38,5.38,0,0,0-.91,1.12,1,1,0,0,0,.07,1.18,1.65,1.65,0,0,1,.24,1.19h-1.94a1.65,1.65,0,0,1,.24-1.19,1.05,1.05,0,0,0,.06-1.18,3.24,3.24,0,0,0-.79-1.06c-.36-.33-.66-.46-1-.06a5.38,5.38,0,0,0-.91,1.12,1.05,1.05,0,0,0,.06,1.18,1.61,1.61,0,0,1,.25,1.19h-1.94a1.65,1.65,0,0,1,.24-1.19,1.05,1.05,0,0,0,.06-1.18,3.38,3.38,0,0,0-.79-1.06c-.36-.33-.67-.46-1-.06a5.08,5.08,0,0,0-.91,1.12,1.05,1.05,0,0,0,.06,1.18,1.61,1.61,0,0,1,.24,1.19h-1.93a1.61,1.61,0,0,1,.24-1.19,1.05,1.05,0,0,0,.06-1.18,3.38,3.38,0,0,0-.79-1.06c-.36-.33-.67-.46-1-.06a5.08,5.08,0,0,0-.91,1.12,1.05,1.05,0,0,0,.06,1.18,1.65,1.65,0,0,1,.24,1.19h.25V192h5.63v-9.69a4.54,4.54,0,0,1,1.76-5.8,3.87,3.87,0,0,1,5.34,1.91,4.87,4.87,0,0,1,0,3.89V192h3.15v-9.69a4.54,4.54,0,0,1,1.76-5.8,3.86,3.86,0,0,1,5.33,1.91,4.79,4.79,0,0,1,0,3.89V192h3.15v-9.69a4.54,4.54,0,0,1,1.76-5.8,3.86,3.86,0,0,1,5.33,1.91,4.79,4.79,0,0,1,0,3.89V192H520v-9.69a4.54,4.54,0,0,1,1.75-5.8,3.87,3.87,0,0,1,5.34,1.91,4.87,4.87,0,0,1,0,3.89V192h3.15v-9.69a4.54,4.54,0,0,1,1.76-5.8,3.86,3.86,0,0,1,5.33,1.91,4.79,4.79,0,0,1,0,3.89V192h5.34V160.34h-.25a1.61,1.61,0,0,1,.25-1.19,1.05,1.05,0,0,0,.06-1.18,2.82,2.82,0,0,0-.85-1.06" transform="translate(0 -10)"/><path id="Path_394" data-name="Path 394" class="cls-2" d="M648,159.15A1.05,1.05,0,0,0,648,158a3.86,3.86,0,0,0-.91-1.12c-.36-.33-.67-.27-1,.06a4.25,4.25,0,0,0-.79,1.06,1.05,1.05,0,0,0,.06,1.18,1.65,1.65,0,0,1,.24,1.19h-1.94a1.61,1.61,0,0,1,.25-1.19A1.05,1.05,0,0,0,644,158a4,4,0,0,0-.91-1.12c-.37-.33-.67-.27-1,.06a4,4,0,0,0-.79,1.06,1.05,1.05,0,0,0,.06,1.18,1.65,1.65,0,0,1,.24,1.19H639.6a1.61,1.61,0,0,1,.25-1.19,1.05,1.05,0,0,0,.06-1.18,4.18,4.18,0,0,0-.91-1.12c-.37-.33-.67-.27-1,.06a4,4,0,0,0-.79,1.06,1.05,1.05,0,0,0,.06,1.18,1.65,1.65,0,0,1,.24,1.19h-1.94a1.65,1.65,0,0,1,.24-1.19,1,1,0,0,0,.06-1.18,4,4,0,0,0-.9-1.12c-.37-.33-.67-.27-1,.06a4,4,0,0,0-.79,1.06,1,1,0,0,0,.06,1.18,1.65,1.65,0,0,1,.24,1.19h-1.94a1.65,1.65,0,0,1,.24-1.19,1,1,0,0,0,.06-1.18,3.83,3.83,0,0,0-.91-1.12c-.36-.33-.66-.27-1,.06a4.2,4.2,0,0,0-.78,1.06,1,1,0,0,0,.06,1.18,1.65,1.65,0,0,1,.24,1.19h-1.94a1.65,1.65,0,0,1,.24-1.19,1.05,1.05,0,0,0,.06-1.18,3.83,3.83,0,0,0-.91-1.12c-.36-.33-.66-.27-1,.06A4.5,4.5,0,0,0,625,158a1,1,0,0,0,.07,1.18,1.65,1.65,0,0,1,.24,1.19h-1.94a1.65,1.65,0,0,1,.24-1.19,1.05,1.05,0,0,0,.06-1.18,3.83,3.83,0,0,0-.91-1.12c-.36-.33-.66-.27-1,.06a4.5,4.5,0,0,0-.79,1.06,1.05,1.05,0,0,0,.06,1.18,1.61,1.61,0,0,1,.25,1.19H619.3a1.65,1.65,0,0,1,.24-1.19,1.05,1.05,0,0,0,.06-1.18,4,4,0,0,0-.91-1.12c-.36-.33-.67-.27-1,.06a4.25,4.25,0,0,0-.79,1.06,1.05,1.05,0,0,0,.06,1.18,1.61,1.61,0,0,1,.25,1.19h-1.94a1.61,1.61,0,0,1,.24-1.19,1.05,1.05,0,0,0,.06-1.18,4,4,0,0,0-.91-1.12c-.36-.33-.67-.27-1,.06a4.25,4.25,0,0,0-.79,1.06,1.05,1.05,0,0,0,.06,1.18,1.65,1.65,0,0,1,.24,1.19h-1.94a1.61,1.61,0,0,1,.25-1.19,1.05,1.05,0,0,0,.06-1.18,4.18,4.18,0,0,0-.91-1.12c-.37-.33-.67-.27-1,.06a4,4,0,0,0-.79,1.06,1.05,1.05,0,0,0,.06,1.18,1.65,1.65,0,0,1,.24,1.19h-1.94a1.61,1.61,0,0,1,.25-1.19,1.05,1.05,0,0,0,.06-1.18,4.18,4.18,0,0,0-.91-1.12c-.37-.33-.67-.27-1,.06a4,4,0,0,0-.79,1.06,1.05,1.05,0,0,0,.06,1.18,1.65,1.65,0,0,1,.24,1.19h-1.94a1.65,1.65,0,0,1,.24-1.19,1,1,0,0,0,.06-1.18,4,4,0,0,0-.9-1.12c-.37-.33-.67-.27-1,.06a4.2,4.2,0,0,0-.78,1.06,1,1,0,0,0,.06,1.18,1.65,1.65,0,0,1,.24,1.19H599a1.65,1.65,0,0,1,.24-1.19,1,1,0,0,0,.06-1.18,3.83,3.83,0,0,0-.91-1.12c-.36-.33-.66-.27-1,.06a4.2,4.2,0,0,0-.78,1.06,1,1,0,0,0,.06,1.18,1.65,1.65,0,0,1,.24,1.19h-1.94a1.65,1.65,0,0,1,.24-1.19,1.05,1.05,0,0,0,.06-1.18,3.83,3.83,0,0,0-.91-1.12c-.36-.33-.66-.27-1,.06a4.5,4.5,0,0,0-.79,1.06,1.05,1.05,0,0,0,.06,1.18,1.61,1.61,0,0,1,.25,1.19h-1.94a1.65,1.65,0,0,1,.24-1.19,1.05,1.05,0,0,0,.06-1.18,3.83,3.83,0,0,0-.91-1.12c-.36-.33-.67-.27-1,.06a4.25,4.25,0,0,0-.79,1.06,1.05,1.05,0,0,0,.06,1.18,1.61,1.61,0,0,1,.25,1.19h-.19V192h4.79v-9.69a4.58,4.58,0,0,1,1.88-5.86,3.91,3.91,0,0,1,5.4,2,4.71,4.71,0,0,1,0,3.82V192h3.21v-9.69a4.58,4.58,0,0,1,1.88-5.86,3.9,3.9,0,0,1,5.39,2,4.63,4.63,0,0,1,0,3.82V192h3.22v-9.69a4.58,4.58,0,0,1,1.88-5.86,3.9,3.9,0,0,1,5.39,2,4.63,4.63,0,0,1,0,3.82V192h3.21v-9.69a4.58,4.58,0,0,1,1.88-5.86,3.91,3.91,0,0,1,5.4,2,4.71,4.71,0,0,1,0,3.82V192h3.21v-9.69a4.58,4.58,0,0,1,1.88-5.86,3.9,3.9,0,0,1,5.39,2,4.63,4.63,0,0,1,0,3.82V192h5V160.34h-.43a3.09,3.09,0,0,0,.79-1.19" transform="translate(0 -10)"/><path id="Path_395" data-name="Path 395" class="cls-2" d="M951.84,167.85s-3.94-.86-4.91-7.78l-3.39-72.2-2.61-6.39-2.61,6.39-3.39,72.2c-1,6.92-4.91,7.78-4.91,7.78h-3.94l-1.46,2,1.52,2,4.54.26c4.91,1.71,5.52,7.84,5.52,7.84v12.65h9.46V180s.54-6.19,5.51-7.84l4.55-.26,1.51-2-1.45-2Z" transform="translate(0 -10)"/><path id="Path_396" data-name="Path 396" class="cls-2" d="M985.85,167.85s-3.94-.86-4.91-7.78l-3.4-72.2-2.61-6.39-2.6,6.39-3.4,72.2c-1,6.92-4.91,7.78-4.91,7.78h-3.94l-1.45,2,1.51,2,4.55.26c4.91,1.71,5.52,7.84,5.52,7.84v12.65h9.45V180s.55-6.19,5.52-7.84l4.55-.26,1.51-2-1.45-2Z" transform="translate(0 -10)"/><path id="Path_397" data-name="Path 397" class="cls-2" d="M1023.73,167.85h-3.94s-3.94-.86-4.91-7.78l-3.39-72.2-2.61-6.39-2.61,6.39-3.39,72.2c-1,6.92-4.91,7.78-4.91,7.78H994l-1.46,2,1.52,2,4.55.26c4.91,1.71,5.51,7.84,5.51,7.84v12.65h9.46V180s.54-6.19,5.51-7.84l4.55-.26,1.52-2Z" transform="translate(0 -10)"/><path id="Path_398" data-name="Path 398" class="cls-2" d="M118.78,192.75l-4.18-58.3v-2.9h-3.27v2.9h-1.21v-2.9h-3.28v2.9h-1.21v-2.9h-3.27v2.9h-1.22v-2.9H97.87v2.9H96.66v-2.9H93.39v2.9l-.31,8.36H91.39v-2.89H88.11v2.89H86.9v-2.89H83.57v2.89H82.35v-2.89H79.08v2.89H77.87v-2.89H74.59v2.89H73.32v-2.89H70.05v2.89H68.78v-2.89H65.5v2.89H65V127.46c2.12-2.24,4.12.53,6.06,1.12a5.23,5.23,0,0,0,1.76.14v-5.6c-.79.26-2.85-1.32-2.85-1.32a3.4,3.4,0,0,0-5,0v-.4h-.85v21.41h-.49v-2.89H60.41v2.89H59.14v-2.89H55.86v2.89H54.59v-2.89H51.32v2.89H50.11v-2.89H46.83v2.89H45.62v-2.89H42.35v2.89H41.07v-2.89H37.8v2.89H36.1l-.3-8.36v-2.9H32.53v2.9H31.31v-2.9H28v2.9H26.83v-2.9H23.56v2.9H22.34v-2.9H19.07v2.9H17.86v-2.9H14.58v2.9l-4.18,58.3H37.86l-1.09-32.08s11.15-4.28,27.82-4.35,27.83,4.35,27.83,4.35l-1.1,32.08Zm-7.94-55.07h2v3h-2Zm-3.15,0h2v3h-2Zm-3.15,0h2v3h-2Zm-3.21,0h2v3h-2Zm-3.16,0h2v3h-2Zm1.58,47H95.33v-9.94h4.42Zm-4.79-47h2v3H95Zm-76.62,3h-2v-3h2Zm3.15,0h-2v-3h2Zm3.16,0h-2v-3h2Zm3.21,0h-2v-3h2Zm1.15-3h2v3H29Zm4.85,47H29.43v-9.94h4.43Zm.3-44.07h-2v-3h2Zm10.43,4.41h2.12v2.38H44.59Zm-5.46,2.38H37v-2.38h2.12Zm3.82,0H40.83v-2.38H43ZM45.8,155a2.28,2.28,0,0,1-2.24-2.24,2.33,2.33,0,0,1,2.06-2.44,2.29,2.29,0,0,1,2.24,2.24v.07A2.21,2.21,0,0,1,45.8,155m4.67-7.57H48.35v-2.38h2.12Zm3.76,0H52.11v-2.38h2.12Zm3.82,0H55.92v-2.38h2.13Zm9.33-2.38H69.5v2.38H67.38Zm-3.94,0h2.24v2.38H63.44Zm-3.76,0H61.8v2.38H59.68Zm9.94,8.63H59.56v-3.42H69.62Zm3.64-6.25H71.14v-2.38h2.12Zm3.82,0H75v-2.38h2.12Zm5.39-2.38H84.6v2.38H82.47Zm-1.63,2.38H78.72v-2.38h2.12ZM83.38,155a2.28,2.28,0,0,1-2.24-2.24,2.33,2.33,0,0,1,2.06-2.44,2.29,2.29,0,0,1,2.24,2.24v.07A2.25,2.25,0,0,1,83.38,155m5-7.57H86.23v-2.38h2.12Zm3.82,0H90.05v-2.38h2.12Z" transform="translate(0 -10)"/><path id="Path_399" data-name="Path 399" class="cls-2" d="M408.29,137.28H435.2v-4.15h4.73a19,19,0,0,0-1.45-4.88,78.38,78.38,0,0,0-16.67-2h-.12a79.15,79.15,0,0,0-16.67,2,17.16,17.16,0,0,0-1.46,4.88h4.73Zm18.06-7.58a1.8,1.8,0,0,1,1.7,1.91v.33a2,2,0,0,1-.42,1v.13h.42v2.77h-3.27v-2.77h.42V133a2,2,0,0,1-.54-1.39,1.83,1.83,0,0,1,1.69-1.91m-6.24,3.36h.42v-.13a1.79,1.79,0,0,1-.42-1v-.33a1.75,1.75,0,0,1,1.52-1.91,1.69,1.69,0,0,1,1.75,1.65v.59a2,2,0,0,1-.42,1v.13h.42v2.77h-3.27Zm-4.67,0h.43v-.13a1.73,1.73,0,0,1-.43-1v-.33a1.84,1.84,0,0,1,1.64-1.91,1.81,1.81,0,0,1,1.76,1.78v.13a1.86,1.86,0,0,1-.55,1.39v.06h.43v2.77h-3.28Z" transform="translate(0 -10)"/><path id="Path_400" data-name="Path 400" class="cls-2" d="M462.06,188.14v-2.31h-6.49l-7-51.32h-12v4H407v-4H395l-7,51.32h-6.48v2.31h-2.06v4.28h84.68v-4.28Zm-32.68-2.31H414.11c-.12-2.57.18-9.48.18-9.94A69.59,69.59,0,0,1,417,160.4a62,62,0,0,1,2.42-6.45c.37-.92,1.21-3.56,2.37-3.63s2,2.71,2.36,3.63c.91,2.11,1.7,4.21,2.43,6.45a70.15,70.15,0,0,1,2.66,15.49c0,.46.31,7.37.18,9.94" transform="translate(0 -10)"/><path id="Path_401" data-name="Path 401" class="cls-2" d="M438.05,127.4c-2.18-4.42-6.73-9.82-16.24-10.28h-.12c-9.52.53-14.13,5.93-16.25,10.28a73.55,73.55,0,0,1,32.61,0" transform="translate(0 -10)"/><path id="Path_402" data-name="Path 402" class="cls-2" d="M1059.43,145.84c-.78.4-1.45.73-2.06,1.12a35.37,35.37,0,0,0-3.39,2.11,20.42,20.42,0,0,0-6.67,7.25,29.43,29.43,0,0,0-3.09,9.68,49.38,49.38,0,0,0-.49,5.08c2.85-.6,6.25-1.12,10.07-1.58a65.79,65.79,0,0,1,2.79-15,85.24,85.24,0,0,1,2.78-8.1.77.77,0,0,1,.06-.53" transform="translate(0 -10)"/><path id="Path_403" data-name="Path 403" class="cls-2" d="M1064.16,141.56a28,28,0,0,0-3.27,1.12c-.06.13-.06.27-.12.4-.24.72-.49,1.38-.67,2a17.52,17.52,0,0,1,3-1.12c.37-.79.73-1.58,1-2.37" transform="translate(0 -10)"/><path id="Path_404" data-name="Path 404" class="cls-2" d="M1035.55,173.78a46.82,46.82,0,0,1,.85-11.27h0a21.21,21.21,0,0,1,.73-2.9c1.82-6.26,6.36-11.66,11.27-15.15a49.41,49.41,0,0,1,26.8-9.22c-6.85.52-13.58,3.16-19.71,6.52-1,.53-1.87,1.12-2.84,1.71A36,36,0,0,0,1040.34,157c-1.09,2.31-3.09,7.58-3.09,15.82a23.42,23.42,0,0,1,3.82-1.26,39.69,39.69,0,0,1,1.27-9.29,29,29,0,0,1,9.21-14.36,31.87,31.87,0,0,1,9-5.53c.36-1.19.72-2.24,1-3.3,0-.13.12-.13.24-.13h0c.12.07.12.13.12.27-.24,1-.55,2-.91,3a29.41,29.41,0,0,1,3.4-1.12.22.22,0,0,1,.18.06.13.13,0,0,1,0,.2c-.31.79-.67,1.58-1.09,2.44a15.94,15.94,0,0,1,2.54-.46c.12,0,.18.06.18.19h0c0,.14-.06.2-.18.2a14.44,14.44,0,0,0-2.79.53c-.12.33-.3.59-.42.92-.61,1.25-1.09,2.31-1.64,3.23a45.64,45.64,0,0,0-4.36,10.61,52.13,52.13,0,0,0-1.4,10.14c.79-.06,1.58-.13,2.37-.26v-.07a51.2,51.2,0,0,1,1.63-10.47c6-16.08,13.28-20.75,15-21.61.72-.4,1.69-.79,2.06-1.52a.24.24,0,0,0,.06-.19v-.66c0-.33-7.28.52-7.7.59-12.24,2-26.43,8.7-31.94,22.07a34.14,34.14,0,0,0-2.37,9.88,37.47,37.47,0,0,0,.06,7.78,3.27,3.27,0,0,1,1-1m30.25-35.45.18-.72a5.55,5.55,0,0,1,.91-.33l1.27-.4a3.69,3.69,0,0,0,.43-.13l-.79,1.39-2.12.52.12-.33Zm.73,2-1.64.4.49-1.19,1.87-.4Zm2-.33-1.28.2.19-.2.91-1.32,2.12-.33Zm2.79-2.3-2,.26.06-.13h-.06l1.15-1.52,3.39-.46Z" transform="translate(0 -10)"/><path id="Path_405" data-name="Path 405" class="cls-2" d="M1075.92,168.05l1.09-3.3c-.06,0-.12-.13-.12-.2a34.25,34.25,0,0,0-2.06-13.7c-5.39,5.86-6.61,13.7-6.85,17.46,2.61-.13,5.21-.2,7.94-.26" transform="translate(0 -10)"/><path id="Path_406" data-name="Path 406" class="cls-2" d="M1079.2,138c-9.7,8.77-13.1,22.21-14.37,30.51.48,0,1-.07,1.45-.07.49-11.26,4.73-17.52,7.46-20.36-.48-1.05-.79-1.64-.79-1.71s0-.2.06-.26.18,0,.25.06h0l.78,1.58a14.22,14.22,0,0,1,2-1.71h.13c.06,0,.06.07.12.13s.24.86.6,2.24c.73-.59,1.58-1.18,2.37-1.71.06-.07.18,0,.24.07h0c.06.06,0,.19-.06.26a17.24,17.24,0,0,0-2.43,1.78,54.65,54.65,0,0,1,1.58,11.33l2.24-6.79-1-16.79s-15.52,8.63-17.7,32.14c.37,0,.79-.06,1.15-.06,2.43-22.27,15.89-30.64,15.89-30.64m-4.43,5.34,1.58-1.78.48,1.58-1.45,1.45Zm1.46,2.7-.49-1,1.21-1.25.43,1.64Zm.72-5.14,1.94-2,.18,2.5-1.63,1.45Zm.91,4.22-.42-1.78,1.57-1.19.13,2.31Z" transform="translate(0 -10)"/><path id="Path_407" data-name="Path 407" class="cls-2" d="M1076.53,148.68c-.24-1-.49-1.78-.55-2.11a11.4,11.4,0,0,0-1.82,1.58,19.5,19.5,0,0,1,.79,2,18.78,18.78,0,0,1,1.58-1.51" transform="translate(0 -10)"/><path id="Path_408" data-name="Path 408" class="cls-2" d="M1062.89,156s-2.49,2.7-5,12.91c0,0,3.45-.2,4.18-.26Zm-1.58,11.79a12.5,12.5,0,0,0-2.12,0s1.58-6.32,2.73-8.23c-.06,0-.55,6.19-.61,8.23" transform="translate(0 -10)"/><path id="Path_409" data-name="Path 409" class="cls-2" d="M1076.29,175l4.42-18.44L1074.65,175Z" transform="translate(0 -10)"/><path id="Path_410" data-name="Path 410" class="cls-2" d="M1107.56,149.07c-1-.66-2.12-1.38-3.39-2.11l-2.06-1.12c.06.2.12.33.18.53,1,2.57,1.94,5.27,2.79,8.1a66.89,66.89,0,0,1,2.79,15c3.82.46,7.21,1,10.06,1.58a45.94,45.94,0,0,0-.49-5.08,31.23,31.23,0,0,0-3.09-9.68,21.8,21.8,0,0,0-6.79-7.25" transform="translate(0 -10)"/><path id="Path_411" data-name="Path 411" class="cls-2" d="M1100.59,142.68a32.4,32.4,0,0,0-3.27-1.12c.3.73.67,1.52,1.09,2.37a24.4,24.4,0,0,1,3,1.12c-.24-.59-.42-1.25-.66-2-.13-.13-.13-.27-.19-.4" transform="translate(0 -10)"/><path id="Path_412" data-name="Path 412" class="cls-2" d="M1105.93,169.23a51.38,51.38,0,0,0-1.4-10.14,45.64,45.64,0,0,0-4.36-10.61c-.49-.92-1-2-1.64-3.23-.18-.33-.3-.66-.42-.92a19.38,19.38,0,0,0-2.79-.53.2.2,0,0,1-.18-.2c0-.13.06-.19.18-.19h0a10.87,10.87,0,0,1,2.55.46c-.43-.86-.79-1.65-1.1-2.44v-.2a.25.25,0,0,1,.19-.06,29.89,29.89,0,0,1,3.39,1.12c-.36-1.06-.61-2-.91-3,0-.14,0-.2.12-.27s.18,0,.25.13h0c.3,1.06.6,2.11,1,3.3a32,32,0,0,1,9,5.53,30.09,30.09,0,0,1,9.21,14.36,40.2,40.2,0,0,1,1.27,9.29,29.35,29.35,0,0,1,3.82,1.25c0-8.23-2-13.5-3.09-15.81a33.15,33.15,0,0,0-5.88-8.23,37,37,0,0,0-6.42-5.34c-.91-.59-1.88-1.18-2.85-1.71-6.13-3.36-12.85-6-19.7-6.52a49.9,49.9,0,0,1,26.79,9.22c4.91,3.49,9.46,8.83,11.27,15.15a23.67,23.67,0,0,1,.73,2.9h0a41.26,41.26,0,0,1,.85,11.27,2.44,2.44,0,0,1,.91.92,42,42,0,0,0,.06-7.77,34.52,34.52,0,0,0-2.36-9.89c-5.52-13.37-19.7-20-32-22.07-.36-.06-7.7-.92-7.7-.59V135a.26.26,0,0,0,.06.2,4,4,0,0,0,2.06,1.51c1.7.93,9,5.54,15,21.61a50.72,50.72,0,0,1,1.63,10.48v.06a15.36,15.36,0,0,0,2.43.33m-12.61-32.35a4.79,4.79,0,0,1,1.27.4,5.23,5.23,0,0,1,.91.33l.18.72h0l.12.4-2.12-.53-.78-1.38c0-.07.18,0,.42.06m-5.7-1.12,3.4.47,1.15,1.51h-.06l.06.13-2-.26ZM1093,140,1091,138.4l2.12.33.91,1.32.18.19Zm1.33-.86,1.88.4.48,1.19-1.63-.4Z" transform="translate(0 -10)"/><path id="Path_413" data-name="Path 413" class="cls-2" d="M1086.65,150.85a34.25,34.25,0,0,0-2.06,13.7c0,.07-.06.2-.12.2l1.09,3.3c2.73.06,5.33.13,7.88.26-.24-3.76-1.39-11.6-6.79-17.46" transform="translate(0 -10)"/><path id="Path_414" data-name="Path 414" class="cls-2" d="M1084.53,148.81a22.41,22.41,0,0,0-2.42-1.78c-.07-.07-.13-.2-.07-.26s.13-.14.25-.07h0a16.15,16.15,0,0,1,2.36,1.71,19.49,19.49,0,0,1,.61-2.24c0-.06.06-.06.12-.13h.12a10.42,10.42,0,0,1,2,1.71,7.24,7.24,0,0,1,.79-1.58c.06-.06.12-.13.24-.06h0c.06.06.12.2.06.26s-.36.66-.79,1.71c2.73,2.84,7,9.1,7.46,20.36.48,0,1,.07,1.45.07-1.21-8.3-4.66-21.74-14.36-30.51,0,0,13.45,8.37,15.94,30.57.42,0,.79.07,1.15.07-2.18-23.52-17.7-32.15-17.7-32.15l-1,16.8,2.24,6.78a51.36,51.36,0,0,1,1.52-11.26m.73-2.77-1.15-.66.42-1.64,1.21,1.25Zm-.18-4.48,1.57,1.78-.6,1.25-1.46-1.45Zm-2.43-2.63,1.94,2-.48,2-1.64-1.45Zm-.18,3.22,1.58,1.19-.43,1.78-1.27-.66Z" transform="translate(0 -10)"/><path id="Path_415" data-name="Path 415" class="cls-2" d="M1085.5,146.57c-.12.33-.3,1.12-.55,2.11.55.46,1.1,1,1.58,1.45.3-.79.55-1.45.79-2a15.2,15.2,0,0,0-1.82-1.51" transform="translate(0 -10)"/><path id="Path_416" data-name="Path 416" class="cls-2" d="M1098.59,156l.79,12.71c.67.07,4.18.27,4.18.27-2.54-10.35-5-13-5-13m1.58,11.79c-.12-2-.61-8.23-.61-8.23,1.15,1.91,2.73,8.23,2.73,8.23a12.5,12.5,0,0,0-2.12,0" transform="translate(0 -10)"/><path id="Path_417" data-name="Path 417" class="cls-2" d="M1084.77,176.21l-4-18.31-4,18.31,4-.79Z" transform="translate(0 -10)"/><path id="Path_418" data-name="Path 418" class="cls-2" d="M1085.2,175h1.57l-6.06-18.44Z" transform="translate(0 -10)"/><path id="Path_419" data-name="Path 419" class="cls-2" d="M1086.77,175.62h-1.57l.12.46a.7.7,0,0,1-.12.6.58.58,0,0,1-.55.19l-3.94-.79-3.94.79a.56.56,0,0,1-.54-.19.71.71,0,0,1-.13-.6l.13-.46h-1.58a.77.77,0,0,1-.49-.26.69.69,0,0,1-.06-.59l.43-1.32c-7.64.33-13.16,1.25-13.16,2.3,0,1.32,8.67,2.44,19.28,2.44s19.28-1.05,19.28-2.44c0-1.05-5.52-2-13.16-2.3l.43,1.32a.69.69,0,0,1-.06.59c0,.13-.19.26-.37.26" transform="translate(0 -10)"/><path id="Path_420" data-name="Path 420" class="cls-2" d="M1127.08,178.45v0" transform="translate(0 -10)"/><path id="Path_421" data-name="Path 421" class="cls-2" d="M1034.4,178.45v-.26c.06.07,0,.2,0,.26" transform="translate(0 -10)"/><path id="Path_422" data-name="Path 422" class="cls-2" d="M1080.77,185.24c24.19,0,44.07-3.29,46.13-7.44a1,1,0,0,1,.12.39v-.72a1,1,0,0,0,.06-.4,1.41,1.41,0,0,0-.06-.46c-.12-1.25-2.18-2.44-5.7-3.49-7-2.11-20-3.56-35.15-3.82l.36,1,.55,1.71a91.49,91.49,0,0,1,9.39.86c3,.53,4.73,1.12,4.73,2.7,0,1.39-1.09,2.31-6.67,3a128.43,128.43,0,0,1-27.58,0c-5.64-.72-6.67-1.58-6.67-3s1.7-2.24,4.73-2.7a75.31,75.31,0,0,1,9.4-.86l.54-1.71.37-1c-14.61.26-27.22,1.64-34.37,3.62-4.13,1.12-6.49,2.44-6.49,3.82v1.45c.06-.13.06-.33.18-.46,1.88,4.22,21.82,7.51,46.13,7.51" transform="translate(0 -10)"/><path id="Path_423" data-name="Path 423" class="cls-2" d="M1127,178.72c-.79,4.41-21.21,7.9-46.31,7.9s-45.46-3.49-46.31-7.9v13.5H1127v-9.94H1127Z" transform="translate(0 -10)"/><path id="Path_424" data-name="Path 424" class="cls-2" d="M887.89,21.27V18.89s-.3-1.12-2.12-1.31c0,0,.12-6.92-.49-7.58-.66.66-.48,7.58-.48,7.58-1.82.19-2.12,1.31-2.12,1.31v2.38Z" transform="translate(0 -10)"/><path id="Path_425" data-name="Path 425" class="cls-2" d="M888.19,23.7V22h-5.94V23.7Z" transform="translate(0 -10)"/><path id="Path_426" data-name="Path 426" class="cls-2" d="M883.77,40.44H889V24.3h-7.39V40.44ZM885.89,39h-1.27V31.48h1.27Zm0-10.48v1.91h-1.27V28.51a2.31,2.31,0,0,1,.12-1.12.52.52,0,0,1,.79-.2l.18.2a1.79,1.79,0,0,1,.18,1.12M887.4,39h-.66V31.48h.66Zm-4.3-10.35a4,4,0,0,1,1.33-3.42,1.45,1.45,0,0,1,1.88.2,4.34,4.34,0,0,1,1.09,3.16v1.78h-.66v-2.7a1.91,1.91,0,0,0-.61-1.39,1.44,1.44,0,0,0-2.06.33,3.09,3.09,0,0,0-.36,1.06v2.7H883Zm0,2.84h.67V39h-.67Z" transform="translate(0 -10)"/><rect id="Rectangle_708" data-name="Rectangle 708" class="cls-2" x="878.86" y="31.16" width="12.67" height="4.35"/><path id="Path_427" data-name="Path 427" class="cls-2" d="M877.34,164.36l-6.54-2.31c-4.31-.59-6.37.79-7,1.38a7.93,7.93,0,0,1,2.43,1.65c3.15,3.1,3.21,8.7,2,12.65-1.58,5.14-4.85,9.42-7.46,12.65-.3.39-.66.79-1,1.25h3.64l5.39-10.47c1.58-5.08,5.28-4.29,5.28-4.29,5.94,1.91,1,14.76,1,14.76h1.51c4-13.83,1.58-24.51.79-27.27" transform="translate(0 -10)"/><path id="Path_428" data-name="Path 428" class="cls-2" d="M867.64,177.53c1.16-3.75,1.09-9.09-1.82-12a7,7,0,0,0-3.21-1.84.33.33,0,0,1-.18-.4h0l-.3-.13c-4.91-2-6.85.33-6.85.33,4.12-.2,7.15,3.82,7.15,3.82,4.67,10.21-8.3,19.37-8.3,19.37l-8.49,4.94h6.67c8.6-5.14,11.33-12.06,11.33-12.06a5.29,5.29,0,0,1,1.94-2.7c3.09-1.12.06,4-.48,4.81a33,33,0,0,1-4.79,6.13l-4.06,3.82H859c.48-.53,1-1.12,1.39-1.65,2.55-3.16,5.7-7.44,7.27-12.45" transform="translate(0 -10)"/><path id="Path_429" data-name="Path 429" class="cls-2" d="M902.13,177.73c-1.21-3.95-1.15-9.62,2-12.65a8.72,8.72,0,0,1,2.43-1.65c-.67-.59-2.79-2-7-1.38L893,164.36c-.79,2.83-3.21,13.44.85,27.27h1.52s-4.91-12.85,1-14.76c0,0,3.75-.79,5.27,4.29L907,191.63h3.64a9.65,9.65,0,0,1-1-1.25c-2.73-3.23-5.94-7.51-7.52-12.65" transform="translate(0 -10)"/><path id="Path_430" data-name="Path 430" class="cls-2" d="M904.8,176.81a5.72,5.72,0,0,1,1.94,2.7s2.73,6.92,11.34,12.05h6.66l-8.48-4.94s-13-9.15-8.31-19.36c0,0,3-4,7.16-3.83,0,0-1.94-2.24-6.85-.33l-.31.14h0a.36.36,0,0,1-.18.39,7.63,7.63,0,0,0-3.21,1.85c-3,2.9-3,8.23-1.82,12a37.5,37.5,0,0,0,7.33,12.38c.43.53.91,1.12,1.4,1.65h3.09c-3.39-3.23-6.55-5.93-9.21-9.95-.61-.79-3.64-5.86-.55-4.74" transform="translate(0 -10)"/><path id="Path_431" data-name="Path 431" class="cls-2" d="M892.37,164.22c-1-.59-4.42-2.24-7.27-2.17s-6.18,1.58-7.27,2.17c.85,3,3.21,13.64-.79,27.41h2.12l1.09-10.21a4.85,4.85,0,1,1,9.7,0L891,191.63h2.12a52.82,52.82,0,0,1-.79-27.41" transform="translate(0 -10)"/><path id="Path_432" data-name="Path 432" class="cls-2" d="M887.71,46.17h-8.13V62.05h11.16V46.17ZM881.83,61h-1.4V58.16h1.4Zm0-4h-1.4V52.43h1.4Zm0-5.73h-1.4v-4h1.4ZM884.62,61h-1.94V58.16h1.94Zm0-4h-1.94V52.43h1.94Zm0-5.73h-1.94v-4h1.94ZM887.71,61h-1.94V58.16h1.94Zm0-4h-1.94V52.43h1.94Zm0-5.73h-1.94v-4h1.94ZM890,61h-1.39V58.16H890Zm0-4h-1.39V52.43H890Zm0-5.73h-1.39v-4H890Z" transform="translate(0 -10)"/><path id="Path_433" data-name="Path 433" class="cls-2" d="M879.16,162.91c.24-1.32.49-2.64.61-4h5.15v2.57h.79v-2.57h5.15c.12,1.32.36,2.7.61,4l1.63.85a18.44,18.44,0,0,1,5.58-1.84s-4.67-20.49-5.27-32.61c0,0-2.07-26.35-2.07-33.21,0,0-.9-16.47-.36-24.9,0,0,1-3.23,2.12-3.88H877.65c1.15.59,2.12,3.88,2.12,3.88.54,8.43-.37,24.9-.37,24.9,0,6.86-2.06,33.21-2.06,33.21-.6,12.12-5.27,32.61-5.27,32.61a18.44,18.44,0,0,1,5.58,1.84Zm6.49-93.29h1.81l.43,21.15h-2.24Zm0,24.51H888l.3,15.41v1h-2.66Zm0,19.7h2.78c.13,3.88.31,9.94.61,16.6h-3.33v-16.6Zm0,19.76h3.51c.12,3.23.31,6.59.49,9.82h-4v-9.82Zm0,13h4.18c.18,3.36.42,6.46.67,9.09h-4.85ZM883,69.62h1.82V90.77h-2.24Zm-.79,39.86.31-15.42h2.36V110.4h-2.67a3.84,3.84,0,0,1,0-.92m-.12,4.35h2.79v16.6h-3.33c.18-6.66.42-12.72.54-16.6m-.73,19.76h3.52v9.82h-4c.18-3.23.3-6.53.48-9.82m-.66,13h4.18v9.09h-4.79c.18-2.63.42-5.73.61-9.09" transform="translate(0 -10)"/><path id="Path_434" data-name="Path 434" class="cls-2" d="M885.34,66.46h8.07V62.77H877.16v3.69Z" transform="translate(0 -10)"/><path id="Path_435" data-name="Path 435" class="cls-2" d="M368.83,169l-.12-3.75h-5v-4.35h-2.91l.6-1.78v-2h-2.06v-2.44h-1.45v-2l.79.92,1-1.12-1-1.12-.79.92v-3h.79v-3.89c-1.82-4.28,0-11.72,0-11.72l1.81-1.78v-4.81a14.78,14.78,0,0,1,.43-1.58v-8.7s3.45-3.16,4.67-6.65v-1.58s-5.1,2-6.49,1.84l2.24-4.28v-.92h-1.15l-.24-1.06h1.21L361,101.9l-1.34-.72h-2.06A5.15,5.15,0,0,1,359,97.62L359,96.9h-3.58a1.95,1.95,0,1,0-3.76-.14h-1.09v-.92h-4.36s2.85-11.53-5-16.14c0,0-6.13-2.17-7.64-12.19l-.18-1.78v0l-.19,1.78c-1.51,10-7.63,12.19-7.63,12.19-7.88,4.61-5,16.14-5,16.14h-4.37v.92H315a2.55,2.55,0,0,0-1.88-2.37,2.64,2.64,0,0,0-1.88,2.51h-3.57l-.06.72a5.33,5.33,0,0,1,1.45,3.56H307l-1.33.72-.25,2.24h1.22l-.25,1.06h-1.15v.92l2.24,4.28c-1.39.13-6.48-1.84-6.48-1.84v1.58c1.21,3.49,4.67,6.65,4.67,6.65v8.76a16.09,16.09,0,0,1,.42,1.58v4.81l1.82,1.78s1.82,7.45,0,11.73v3.89h.79v3l-.79-.93-1,1.12,1,1.12.79-.92v2h-1.46v2.44h-2.06v2l.61,1.78h-2.91v4.34h-5l-.12,3.76h-5.4v3.82h40.86v0H374.1V169Zm-27.7-64.95h1.51v8.43h-1.51Zm1.57,17.26-.54.46-.06-.13-.06-.14.54-.46.06.14Zm-1-1.32-.48.59-.06-.06-.06-.07.48-.59.06.06Zm-1.21-1.19.06.07-.42.66-.06-.07-.07-.06.43-.66Zm-1.21-.92.12.07-.37.72-.12-.06-.12-.07.37-.72Zm-1.4-.79.12.07-.24.72-.12-.06-.12-.07.24-.73Zm-2.3-13h1.51v8.43h-1.51Zm1,12.51-.18.79-.12-.06-.12-.07.18-.79.12.07Zm-3.15-28.72a6.48,6.48,0,0,1,2.73,5h-5.52a6.65,6.65,0,0,1,2.79-5m1.69,28.39-.12.79h-.24l.12-.79h.24Zm-1.63-.13v.79h-.12v-.79Zm-1.4.92h-.24l-.12-.79h.24Zm-2.36-13h1.52v8.43h-1.52Zm1,13.24-.12.06-.12.07-.18-.79.12-.07.12-.06Zm-1.76-.2.12-.07.25.73-.13.07-.12.06-.24-.72Zm-1.33.73.12-.07.36.72-.12.07-.12.07-.36-.73Zm-1.27,1,.06-.06.42.66-.06.06-.06.07-.43-.66Zm-2.19-14.75h1.52v8.43h-1.52Zm1.09,15.81.49.59-.06.07-.06.06-.49-.59.06-.07Zm-1,1.38.06-.13.55.46-.06.13-.06.13-.55-.46ZM313,97.42a5.14,5.14,0,0,1,2.18,3.69h-4.36c0-2,2.18-3.69,2.18-3.69m3.33,55-.78-.93-1,1.12,1,1.12.78-.92v2h-1.45v2.44h-2.43v-2.44H311v-2l.79.92,1-1.12-1-1.12-.79.93v-3.1h.79v-3.89c-1.82-4.28,0-11.72,0-11.72l1.82-1.78,1.81,1.78s1.82,7.44,0,11.72v3.89h.79Zm2.13-48.29H320v8.43h-1.51Zm29.64,48.29-.79-.93-1,1.12,1,1.12.79-.92v2h-1.46v2.44H334V154.8l1.34-1.12v-.46H334v-1.51l.73-.2v-.72l-1.39-.8v0l-1.4.8v.72l.73.2v1.51h-1.27v.46l1.33,1.12v2.38H320v-2.44h-1.45v-2l.78.92,1-1.12-1-1.12-.78.93v-3.1h.78v-3.89c-1.81-4.28,0-11.72,0-11.72l1.82-1.78v-3.69h.06l.13-.27.3.07s.12.53.67.2a1.55,1.55,0,0,0,.6-.59,1.38,1.38,0,0,0-.42-.8c-.43-.39-.67,0-.67,0l-.3-.06-.06-.26h-.12c0-.07,0-.07.06-.14h.12l.12-.19.3.06a.41.41,0,0,0,.61.33s.54-.2.66-.53a1.17,1.17,0,0,0-.3-.79c-.36-.46-.67-.06-.67-.06l-.3-.07-.06-.26h-.06c0-.07,0-.07.06-.13H322l.18-.2.25.13s0,.53.6.4a1.56,1.56,0,0,0,.73-.4,1.44,1.44,0,0,0-.24-.86c-.31-.52-.67-.19-.67-.19l-.24-.13v-.27a.26.26,0,0,1,.06-.13l.18-.13.24.2s-.06.52.55.46a1,1,0,0,0,.73-.33,1.55,1.55,0,0,0-.13-.92c-.24-.6-.66-.27-.66-.27l-.25-.2v-.13c.07-.13.13-.2.19-.33l.12-.06.24.19a.49.49,0,0,0,.49.6,1.74,1.74,0,0,0,.78-.2,2.37,2.37,0,0,0,0-.92c-.18-.6-.6-.4-.6-.4l-.25-.2v-.06l.37-.4h0l.18.27s-.18.46.42.66a1.14,1.14,0,0,0,.79-.07,1.57,1.57,0,0,0,.06-.92c-.12-.66-.54-.46-.54-.46l-.18-.2a3.28,3.28,0,0,1,.42-.4l.18.27a.5.5,0,0,0,.31.66.83.83,0,0,0,.78,0,2.25,2.25,0,0,0,.18-.86c-.06-.66-.48-.53-.48-.53l-.18-.2c.12-.13.3-.19.42-.32l.12.26s-.24.39.25.72a1.1,1.1,0,0,0,.78.14,1.44,1.44,0,0,0,.31-.86c.06-.66-.43-.59-.43-.59l-.12-.27c.18-.06.3-.2.49-.26l.12.26a.49.49,0,0,0,.18.73,1.19,1.19,0,0,0,.79.26c.3-.2.36-.79.36-.79.12-.66-.36-.66-.36-.66l-.12-.26.48-.2.06.33s-.36.33.06.79c0,0,.43.4.73.4s.49-.73.49-.73a.52.52,0,0,0-.31-.72l-.06-.33.06-.07c.12-.07.24-.07.37-.13l.12.06.06.33s-.37.27,0,.79c0,0,.36.47.66.47a1.57,1.57,0,0,0,.55-.66c.24-.6-.18-.73-.18-.73l-.06-.33.18-.13h.12v.07l.24.13v.33s-.42.2-.12.79c0,0,.3.53.61.59h.12c.3-.06.61-.59.61-.59a.55.55,0,0,0-.13-.79v-.33l.25-.13v-.07h.12l.18.13-.06.33s-.43.13-.18.73a1.6,1.6,0,0,0,.54.66c.31,0,.67-.47.67-.47.36-.52,0-.79,0-.79l.06-.33.12-.06a.75.75,0,0,1,.36.13l.07.07-.07.33s-.42.06-.3.72c0,0,.18.59.49.73s.72-.4.72-.4c.43-.46.06-.79.06-.79l.07-.33.48.2-.12.26s-.49,0-.36.66a1.77,1.77,0,0,0,.36.79c.3.07.79-.26.79-.26.48-.4.18-.73.18-.73l.12-.26c.18.06.3.2.49.26l-.13.27s-.48-.07-.42.59a1.49,1.49,0,0,0,.3.86,1.12,1.12,0,0,0,.79-.14.52.52,0,0,0,.24-.72l.12-.26c.13.13.31.19.43.32l-.18.2s-.43-.13-.49.53a2,2,0,0,0,.18.86,1.76,1.76,0,0,0,.79,0,.45.45,0,0,0,.3-.66l.19-.27a2.31,2.31,0,0,0,.42.4l-.18.2s-.43-.2-.55.46a1.61,1.61,0,0,0,.06.92,1.15,1.15,0,0,0,.79.07.55.55,0,0,0,.43-.66l.18-.27h0l.36.4v.06l-.24.2s-.42-.26-.61.4a1.22,1.22,0,0,0,0,.92,1.16,1.16,0,0,0,.79.2.54.54,0,0,0,.49-.6l.24-.19.12.06c.06.13.12.2.18.33v.13l-.24.2s-.36-.33-.67.27a1.56,1.56,0,0,0-.12.92,1.07,1.07,0,0,0,.73.33.45.45,0,0,0,.54-.46l.25-.2.18.13a.21.21,0,0,0,.06.13v.27l-.24.13s-.37-.33-.67.19a1.44,1.44,0,0,0-.24.86c.18.33.73.4.73.4a.46.46,0,0,0,.6-.4l.24-.13.19.2h.06c0,.06,0,.06.06.13h-.06l-.06.26-.31.07s-.3-.4-.66.06a1.24,1.24,0,0,0-.31.79c.12.33.67.53.67.53a.41.41,0,0,0,.61-.33l.3-.06.12.19h.12c0,.07,0,.07.06.14h-.12l-.06.26-.3.07s-.25-.47-.67,0a1.34,1.34,0,0,0-.42.79,1.55,1.55,0,0,0,.6.59c.55.26.67-.2.67-.2l.3-.07.12.27h.06v3.69l1.82,1.78s1.82,7.44,0,11.72v3.89h.79ZM321.79,127.6v-.27l.73.13v.27Zm.3-1.65v-.26l.67.19v.27Zm.49-1.65.06-.13.06-.13.67.33-.07.13-.06.13Zm.66-1.51.06-.14.07-.13.6.4-.06.13-.06.13Zm20.25,0-.61.39-.06-.13-.06-.13.61-.4.06.13Zm.67,1.51-.67.33-.06-.13-.06-.13L344,124l.06.13Zm.48,1.65-.66.2v-.27l.66-.19V126Zm.31,1.65-.73.13v-.27l.73-.13v.27Zm3.33-15.09h-1.52v-8.43h1.52Zm7.39,39.86-.78-.93-1,1.12,1,1.12.78-.92v2h-1.45v2.44h-2.43v-2.44h-1.45v-2l.79.92,1-1.12-1-1.12-.79.93v-3.1h.79v-3.89c-1.82-4.28,0-11.72,0-11.72l1.82-1.78,1.81,1.78s1.82,7.44,0,11.72v3.89h.79Zm-4.06-51.26a5.22,5.22,0,0,1,2.19-3.69s2.18,1.72,2.18,3.69Z" transform="translate(0 -10)"/><path id="Path_436" data-name="Path 436" class="cls-2" d="M191.52,125.16V119s-.12-1.12-2.18-1.32c-2.06.2-2.18,1.32-2.18,1.32v6.19Z" transform="translate(0 -10)"/><path id="Path_437" data-name="Path 437" class="cls-2" d="M196.86,125.16V119s-.12-1.12-2.18-1.32c-2.06.2-2.19,1.32-2.19,1.32v6.19Z" transform="translate(0 -10)"/><path id="Path_438" data-name="Path 438" class="cls-2" d="M202.19,125.16V119s-.12-1.12-2.18-1.32c-2.06.2-2.18,1.32-2.18,1.32v6.19Z" transform="translate(0 -10)"/><path id="Path_439" data-name="Path 439" class="cls-2" d="M184,125.16h2.18V119s-.12-1.12-2.18-1.32Z" transform="translate(0 -10)"/><path id="Path_440" data-name="Path 440" class="cls-2" d="M184.31,112.64v-.92a1.43,1.43,0,0,0-1-.86l-.48-1.78-.49,1.78a1.32,1.32,0,0,0-1,.86v.92Z" transform="translate(0 -10)"/><path id="Path_441" data-name="Path 441" class="cls-2" d="M182.37,125.49h1V115a1.84,1.84,0,0,0,1-1.45H185V113h-4.37v.53h.73a2.06,2.06,0,0,0,1,1.45Z" transform="translate(0 -10)"/><path id="Path_442" data-name="Path 442" class="cls-2" d="M168.37,128.19v1.32l-.85.46v1.38h5.82V130l-.85-.46v-1.32s1.64-.86.42-3c0,0-1.15-2-2.42-2.24-1.27.2-2.42,2.24-2.42,2.24-1.34,2.17.3,3,.3,3m1.57-3.23h.91v3.16h-.91Z" transform="translate(0 -10)"/><path id="Path_443" data-name="Path 443" class="cls-2" d="M175.58,128.19v1.32l-.85.46v1.38h5.82V130l-.85-.46v-1.32s1.64-.86.43-3c0,0-1.15-2-2.43-2.24-1.27.2-2.42,2.24-2.42,2.24-1.4,2.17.3,3,.3,3m1.58-3.23h.91v3.16h-.91Z" transform="translate(0 -10)"/><rect id="Rectangle_709" data-name="Rectangle 709" class="cls-2" x="166.73" y="153.43" width="14.79" height="7.64"/><path id="Path_444" data-name="Path 444" class="cls-2" d="M168.25,189.06v-4.81h-.12a4.44,4.44,0,0,0-2.19-2.11V182H131.09v.13a4.15,4.15,0,0,0-2.18,2.11h-.12v4.81a4.64,4.64,0,0,0-1.58,1.91v1.58h42.73V191a6.19,6.19,0,0,0-1.69-1.91" transform="translate(0 -10)"/><path id="Path_445" data-name="Path 445" class="cls-2" d="M166.73,175.82a1,1,0,0,1,.12.46v4.81a1.07,1.07,0,0,1-.12.4,5.55,5.55,0,0,1,2.06,2,1,1,0,0,1,.43.73v4.41a6,6,0,0,1,1.51,2,.89.89,0,0,1,.06.39v1.58c0,.13,0,.27-.06.33h10.79V171.93H166.73Z" transform="translate(0 -10)"/><rect id="Rectangle_710" data-name="Rectangle 710" class="cls-2" x="131.33" y="166.28" width="34.61" height="4.81"/><path id="Path_446" data-name="Path 446" class="cls-2" d="M152.12,125.16h.25a1.42,1.42,0,0,1,.24-.4c.24-.39,1.45-2.43,3.09-2.7h.3a4.47,4.47,0,0,1,2.31,1.58V111.19h-19.4v12.65a4.39,4.39,0,0,1,2.48-1.78h.31c1.63.27,2.85,2.31,3.09,2.7.06.13.18.27.24.4h.24a1.26,1.26,0,0,1,.25-.4c.24-.39,1.45-2.43,3.09-2.7h.3c1.64.27,2.85,2.31,3.09,2.7a1,1,0,0,0,.12.4m.43-8.83s-.06-1.12,2-1.71c2,.59,2,1.71,2,1.71V120h-3.94v-3.69Zm-7.7,3.69h-3.94v-3.69s-.06-1.12,2-1.71c2,.59,2,1.71,2,1.71V120Zm5.82,0h-3.94v-3.69s-.06-1.12,2-1.71c2,.59,2,1.71,2,1.71Z" transform="translate(0 -10)"/><path id="Path_447" data-name="Path 447" class="cls-2" d="M148.61,104.14h10.06s.55-4.35-3.33-5.53c0,0-5-1.58-5.82-4.22l-.85-3.75-.85,3.75C147,97,142,98.61,142,98.61c-3.88,1.18-3.33,5.53-3.33,5.53Z" transform="translate(0 -10)"/><path id="Path_448" data-name="Path 448" class="cls-2" d="M148.61,110.53h13l-2.91-2.3H138.55l-2.91,2.3Z" transform="translate(0 -10)"/><path id="Path_449" data-name="Path 449" class="cls-2" d="M148.61,107.63h10.06V105H138.55v2.63Z" transform="translate(0 -10)"/><path id="Path_450" data-name="Path 450" class="cls-2" d="M166.73,162.71h14.79V131.88H166.73Zm5.09-16.08h4.55v5.14h-4.55Z" transform="translate(0 -10)"/><path id="Path_451" data-name="Path 451" class="cls-2" d="M138.61,130v35.84a3.37,3.37,0,0,1,2.84-1.78,3.56,3.56,0,0,1,3,2V130h0l-.84-.46v-1.32s1.63-.86.42-3c0,0-1.15-2-2.42-2.24-1.28.2-2.43,2.24-2.43,2.24-1.27,2.17.43,3,.43,3v1.32Zm2.48-5H142v3.16h-.91Z" transform="translate(0 -10)"/><path id="Path_452" data-name="Path 452" class="cls-2" d="M153,130v36.1a3.18,3.18,0,0,1,5.82-.26V130h0l-.85-.46v-1.32s1.64-.86.43-3c0,0-1.15-2-2.43-2.24-1.27.2-2.42,2.24-2.42,2.24-1.28,2.17.42,3,.42,3v1.32Zm2.43-5h.91v3.16h-.91Z" transform="translate(0 -10)"/><path id="Path_453" data-name="Path 453" class="cls-2" d="M160.55,125.16c-1.27,2.17.42,3,.42,3v1.32l-.85.46v36a3.5,3.5,0,0,1,3-2,3.43,3.43,0,0,1,2.85,1.84V130h0l-.84-.46v-1.32s1.63-.86.42-3c0,0-1.15-2-2.43-2.24-1.39.2-2.54,2.24-2.54,2.24m2-.2h.91v3.16h-.91Z" transform="translate(0 -10)"/><path id="Path_454" data-name="Path 454" class="cls-2" d="M145.82,130v35.84a3.18,3.18,0,0,1,5.82.26V130h0l-.85-.46v-1.32s1.64-.86.42-3c0,0-1.15-2-2.42-2.24-1.27.2-2.43,2.24-2.43,2.24-1.27,2.17.43,3,.43,3v1.32Zm2.42-5h.91v3.16h-.91Z" transform="translate(0 -10)"/><path id="Path_455" data-name="Path 455" class="cls-2" d="M132.36,128.19v1.32l-.85.46v36.1a3.65,3.65,0,0,1,3-2,3.49,3.49,0,0,1,2.79,1.71V130h0l-.85-.46v-1.32s1.64-.86.43-3c0,0-1.15-2-2.43-2.24-1.27.2-2.42,2.24-2.42,2.24-1.4,2.17.3,3,.3,3m1.58-3.23h.91v3.16h-.91Z" transform="translate(0 -10)"/><path id="Path_456" data-name="Path 456" class="cls-2" d="M131.45,175.49h34.43V172a8.63,8.63,0,0,0,.31-2.18c0-2.76-1.4-4.94-3.16-4.94s-3.15,2.24-3.15,4.94a7.66,7.66,0,0,0,.31,2.05h-1.34a7.63,7.63,0,0,0,.3-2.05c0-2.76-1.39-4.94-3.15-4.94s-3.15,2.24-3.15,4.94a8.07,8.07,0,0,0,.3,2.05h-1.51a7.63,7.63,0,0,0,.3-2.05c0-2.76-1.39-4.94-3.15-4.94s-3.15,2.24-3.15,4.94a8.07,8.07,0,0,0,.3,2.05h-1.33a7.63,7.63,0,0,0,.3-2.05c0-2.76-1.39-4.94-3.15-4.94s-3.15,2.24-3.15,4.94a8.07,8.07,0,0,0,.3,2.05H137.7a7.63,7.63,0,0,0,.3-2.05c0-2.76-1.39-4.94-3.15-4.94s-3.15,2.24-3.15,4.94a8.07,8.07,0,0,0,.3,2.05h-.79a4.9,4.9,0,0,0-2,2.1v1.52Z" transform="translate(0 -10)"/><path id="Path_457" data-name="Path 457" class="cls-2" d="M222.5,125.16V119s-.12-1.12-2.18-1.32c-2.06.2-2.19,1.32-2.19,1.32v6.19Z" transform="translate(0 -10)"/><path id="Path_458" data-name="Path 458" class="cls-2" d="M217.16,125.16V119s-.12-1.12-2.18-1.32c-2.06.2-2.18,1.32-2.18,1.32v6.19Z" transform="translate(0 -10)"/><path id="Path_459" data-name="Path 459" class="cls-2" d="M211.77,125.16V119s-.12-1.12-2.18-1.32c-2.06.2-2.18,1.32-2.18,1.32v6.19Z" transform="translate(0 -10)"/><path id="Path_460" data-name="Path 460" class="cls-2" d="M225.59,117.65c-2.06.2-2.18,1.32-2.18,1.32v6.19h2.18Z" transform="translate(0 -10)"/><path id="Path_461" data-name="Path 461" class="cls-2" d="M228.2,112.64v-.92a1.45,1.45,0,0,0-1-.86l-.49-1.78-.48,1.78a1.31,1.31,0,0,0-1,.86v.92Z" transform="translate(0 -10)"/><path id="Path_462" data-name="Path 462" class="cls-2" d="M228.92,113.43v-.53h-4.36v.53h.73a2,2,0,0,0,1,1.45v10.54h1V114.88a1.85,1.85,0,0,0,1-1.45Z" transform="translate(0 -10)"/><path id="Path_463" data-name="Path 463" class="cls-2" d="M237.17,128.19v1.32l-.85.46v1.38h5.82V130l-.85-.46v-1.32s1.64-.86.42-3c0,0-1.15-2-2.42-2.24-1.27.2-2.42,2.24-2.42,2.24-1.34,2.17.3,3,.3,3m1.57-3.23h.91v3.16h-.91Z" transform="translate(0 -10)"/><path id="Path_464" data-name="Path 464" class="cls-2" d="M230,128.19v1.32l-.85.46v1.38H235V130l-.85-.46v-1.32s1.63-.86.42-3c0,0-1.15-2-2.42-2.24-1.28.2-2.43,2.24-2.43,2.24-1.39,2.17.31,3,.31,3m1.57-3.23h.91v3.16h-.91Z" transform="translate(0 -10)"/><rect id="Rectangle_711" data-name="Rectangle 711" class="cls-2" x="228.14" y="153.43" width="14.79" height="7.64"/><path id="Path_465" data-name="Path 465" class="cls-2" d="M280.87,189.06v-4.81h-.12a4.38,4.38,0,0,0-2.18-2.11V182H243.72v.13a4.44,4.44,0,0,0-2.19,2.11h-.12v4.81a4.62,4.62,0,0,0-1.57,1.91v1.58h42.73V191a6.09,6.09,0,0,0-1.7-1.91" transform="translate(0 -10)"/><path id="Path_466" data-name="Path 466" class="cls-2" d="M239,190.58a6.68,6.68,0,0,1,1.51-2v-4.41a.81.81,0,0,1,.43-.73,5.14,5.14,0,0,1,2.06-2,1.07,1.07,0,0,1-.12-.4v-4.81a1.31,1.31,0,0,1,.12-.46v-3.89H228.2v20.95H239a.65.65,0,0,1-.06-.33V191a.46.46,0,0,1,.06-.39" transform="translate(0 -10)"/><rect id="Rectangle_712" data-name="Rectangle 712" class="cls-2" x="243.72" y="166.28" width="34.61" height="4.81"/><path id="Path_467" data-name="Path 467" class="cls-2" d="M264.39,125.16h.24a1.42,1.42,0,0,1,.24-.4c.24-.39,1.46-2.43,3.09-2.7h.3a4.66,4.66,0,0,1,2.49,1.78V111.19h-19.4v12.45a4.47,4.47,0,0,1,2.31-1.58h.3c1.64.27,2.85,2.31,3.09,2.7.06.13.18.27.24.4h.25a1.42,1.42,0,0,1,.24-.4c.24-.39,1.45-2.43,3.09-2.7h.3c1.64.27,2.85,2.31,3.09,2.7a.9.9,0,0,0,.13.4m.36-8.83s-.06-1.12,2-1.71c2,.59,2,1.71,2,1.71V120h-3.94ZM257.11,120h-3.94v-3.69s-.06-1.12,2-1.71c2,.59,2,1.71,2,1.71Zm5.82,0H259v-3.69s-.06-1.12,2-1.71c2,.59,2,1.71,2,1.71Z" transform="translate(0 -10)"/><path id="Path_468" data-name="Path 468" class="cls-2" d="M261,104.14h10.06s.55-4.35-3.33-5.53c0,0-5-1.58-5.82-4.22l-.85-3.75-.85,3.75c-.85,2.64-5.82,4.22-5.82,4.22-3.88,1.18-3.33,5.53-3.33,5.53Z" transform="translate(0 -10)"/><path id="Path_469" data-name="Path 469" class="cls-2" d="M261,110.53h13l-2.91-2.3H250.93l-2.91,2.3Z" transform="translate(0 -10)"/><path id="Path_470" data-name="Path 470" class="cls-2" d="M261,107.63h10.06V105H250.93v2.63Z" transform="translate(0 -10)"/><path id="Path_471" data-name="Path 471" class="cls-2" d="M206.92,120s-.61-2-2.06-2-2.06,2-2.06,2V126H182.37v66.54H193V162.91c.18-7.71,10.36-10.15,11.82-10.48,1.45.33,11.58,2.77,11.82,10.48v29.58h10.61V125.88H206.86V120Zm-10.06,25.49h-4.37v-6.32h4.37Zm15.94-6.39h4.36v6.33H212.8Zm-5.39,0v6.33h-5.22v-6.33Z" transform="translate(0 -10)"/><path id="Path_472" data-name="Path 472" class="cls-2" d="M242.93,131.88H228.14v30.83h14.79Zm-5.09,19.89h-4.55v-5.14h4.55Z" transform="translate(0 -10)"/><path id="Path_473" data-name="Path 473" class="cls-2" d="M270.57,125.16s-1.15-2-2.43-2.24c-1.27.2-2.42,2.24-2.42,2.24-1.27,2.17.42,3,.42,3v1.32l-.85.46h0v36a3.2,3.2,0,0,1,5.82-.19V130l-.84-.46v-1.32c-.13,0,1.51-.86.3-3m-2,3h-.91V125h.91Z" transform="translate(0 -10)"/><path id="Path_474" data-name="Path 474" class="cls-2" d="M256.2,125.16s-1.15-2-2.42-2.24c-1.28.2-2.43,2.24-2.43,2.24-1.27,2.17.43,3,.43,3v1.32l-.85.46h0v35.84a3.52,3.52,0,0,1,2.85-1.78,3.56,3.56,0,0,1,3,2V130l-.85-.46v-1.32c-.12,0,1.58-.86.3-3m-2,3h-.91V125h.91Z" transform="translate(0 -10)"/><path id="Path_475" data-name="Path 475" class="cls-2" d="M246.56,164a3.56,3.56,0,0,1,3,2V130l-.84-.46v-1.32s1.63-.86.42-3c0,0-1.15-2-2.42-2.24-1.28.2-2.43,2.24-2.43,2.24-1.27,2.17.42,3,.42,3v1.32l-.84.46h0v35.84a3.15,3.15,0,0,1,2.72-1.78M246.14,125h.91v3.16h-.91Z" transform="translate(0 -10)"/><path id="Path_476" data-name="Path 476" class="cls-2" d="M263.35,125.16s-1.15-2-2.42-2.24c-1.27.2-2.42,2.24-2.42,2.24-1.28,2.17.42,3,.42,3v1.32l-.85.46h0v36.1a3.18,3.18,0,0,1,5.82-.26V130l-.91-.46v-1.32s1.64-.86.36-3m-2,3h-.9V125h.9Z" transform="translate(0 -10)"/><path id="Path_477" data-name="Path 477" class="cls-2" d="M272.81,125.16c-1.27,2.17.43,3,.43,3v1.32l-.85.46h0v35.77a3.35,3.35,0,0,1,2.79-1.71,3.65,3.65,0,0,1,3,2V130l-.85-.46v-1.32s1.63-.86.42-3c0,0-1.15-2-2.42-2.24-1.4.2-2.55,2.24-2.55,2.24m2-.2h.91v3.16h-.91Z" transform="translate(0 -10)"/><path id="Path_478" data-name="Path 478" class="cls-2" d="M243.72,173.84v1.58h37.09v-1.51a4.6,4.6,0,0,0-2-2.11H278a7.25,7.25,0,0,0,.31-2c0-2.77-1.4-4.94-3.15-4.94s-3.16,2.24-3.16,4.94a5.79,5.79,0,0,0,.31,2h-1.22a7.25,7.25,0,0,0,.31-2c0-2.77-1.4-4.94-3.16-4.94s-3.15,2.24-3.15,4.94a5.79,5.79,0,0,0,.31,2h-1.34a7.62,7.62,0,0,0,.31-2c0-2.77-1.4-4.94-3.16-4.94s-3.15,2.24-3.15,4.94a6,6,0,0,0,.3,2h-1.51a7.62,7.62,0,0,0,.3-2c0-2.77-1.39-4.94-3.15-4.94s-3.15,2.24-3.15,4.94a8,8,0,0,0,.3,2h-1.33a7.62,7.62,0,0,0,.3-2c0-2.77-1.39-4.94-3.15-4.94s-3.15,2.24-3.15,4.94a9,9,0,0,0,.3,2.17Z" transform="translate(0 -10)"/><rect id="Rectangle_713" data-name="Rectangle 713" class="cls-2" x="292.51" y="162.79" width="81.71" height="26.13"/><rect id="Rectangle_714" data-name="Rectangle 714" class="cls-2" y="181.28" width="1138" height="7.65"/></g></svg>